G04 #@! TF.FileFunction,Copper,L1,Top,Signal*
%FSLAX46Y46*%
G04 Gerber Fmt 4.6, Leading zero omitted, Abs format (unit mm)*
G04 Created by KiCad (PCBNEW 4.0.6-e0-6349~53~ubuntu16.04.1) date Sun Jul  2 22:52:24 2017*
%MOMM*%
%LPD*%
G01*
G04 APERTURE LIST*
%ADD10C,0.100000*%
%ADD11C,0.508000*%
%ADD12R,1.400000X1.200000*%
%ADD13R,0.750000X0.800000*%
%ADD14R,0.800000X0.750000*%
%ADD15R,1.600000X1.000000*%
%ADD16R,0.797560X0.797560*%
%ADD17R,1.727200X1.727200*%
%ADD18O,1.727200X1.727200*%
%ADD19R,0.900000X0.500000*%
%ADD20R,0.500000X0.900000*%
%ADD21R,0.812800X0.381000*%
%ADD22R,1.651000X2.387600*%
%ADD23R,0.700000X0.250000*%
%ADD24R,0.250000X0.700000*%
%ADD25R,1.725000X1.725000*%
%ADD26R,1.700000X0.650000*%
%ADD27C,0.381000*%
%ADD28C,1.651000*%
%ADD29R,1.524000X1.524000*%
%ADD30R,1.524000X7.112000*%
%ADD31C,0.508000*%
%ADD32C,0.600000*%
%ADD33C,1.000000*%
%ADD34C,0.400000*%
%ADD35C,0.500000*%
%ADD36C,0.250000*%
G04 APERTURE END LIST*
D10*
D11*
X113157000Y-83312000D02*
X110744000Y-83312000D01*
X109347000Y-76454000D02*
X117475000Y-76454000D01*
X115189000Y-83388200D02*
X115189000Y-76454000D01*
X113157000Y-82169000D02*
X113157000Y-83312000D01*
X113157000Y-82169000D02*
X109347000Y-82169000D01*
X109347000Y-81026000D02*
X109347000Y-82169000D01*
X109347000Y-81026000D02*
X113157000Y-81026000D01*
X113157000Y-79883000D02*
X113157000Y-81026000D01*
X113157000Y-79883000D02*
X109347000Y-79883000D01*
X109347000Y-78740000D02*
X109347000Y-79883000D01*
X109347000Y-78740000D02*
X113157000Y-78740000D01*
X113157000Y-77597000D02*
X113157000Y-78740000D01*
X113157000Y-77597000D02*
X109347000Y-77597000D01*
X109347000Y-76454000D02*
X109347000Y-77597000D01*
D12*
X118384500Y-68669000D03*
X116184500Y-68669000D03*
X118384500Y-70269000D03*
X116184500Y-70269000D03*
D13*
X118872000Y-76315000D03*
X118872000Y-74815000D03*
D14*
X139775500Y-76009500D03*
X141275500Y-76009500D03*
D13*
X143446500Y-79363000D03*
X143446500Y-77863000D03*
D15*
X142938500Y-69112000D03*
X142938500Y-72112000D03*
D13*
X120269000Y-68592000D03*
X120269000Y-70092000D03*
X114300000Y-70092000D03*
X114300000Y-68592000D03*
D14*
X135076500Y-68389500D03*
X136576500Y-68389500D03*
X143815500Y-74422000D03*
X142315500Y-74422000D03*
D16*
X118414800Y-85217000D03*
X116916200Y-85217000D03*
D17*
X120586500Y-84645500D03*
D18*
X120586500Y-82105500D03*
X123126500Y-84645500D03*
X123126500Y-82105500D03*
X125666500Y-84645500D03*
X125666500Y-82105500D03*
X128206500Y-84645500D03*
X128206500Y-82105500D03*
X130746500Y-84645500D03*
X130746500Y-82105500D03*
X133286500Y-84645500D03*
X133286500Y-82105500D03*
X135826500Y-84645500D03*
X135826500Y-82105500D03*
X138366500Y-84645500D03*
X138366500Y-82105500D03*
X140906500Y-84645500D03*
X140906500Y-82105500D03*
X143446500Y-84645500D03*
X143446500Y-82105500D03*
D19*
X127571500Y-79807500D03*
X127571500Y-78307500D03*
X136144000Y-79807500D03*
X136144000Y-78307500D03*
X120713500Y-79807500D03*
X120713500Y-78307500D03*
X122428000Y-79807500D03*
X122428000Y-78307500D03*
X118808500Y-79807500D03*
X118808500Y-78307500D03*
X132715000Y-78307500D03*
X132715000Y-79807500D03*
X134429500Y-78307500D03*
X134429500Y-79807500D03*
X125857000Y-78307500D03*
X125857000Y-79807500D03*
X124142500Y-78307500D03*
X124142500Y-79807500D03*
X122047000Y-74219500D03*
X122047000Y-72719500D03*
D20*
X137997500Y-68389500D03*
X139497500Y-68389500D03*
X136894000Y-76835000D03*
X135394000Y-76835000D03*
D19*
X129286000Y-79807500D03*
X129286000Y-78307500D03*
X131000500Y-79807500D03*
X131000500Y-78307500D03*
D21*
X141871700Y-79641700D03*
X141871700Y-79006700D03*
X141871700Y-78346300D03*
X141871700Y-77711300D03*
X138925300Y-77711300D03*
X138925300Y-78346300D03*
X138925300Y-79006700D03*
X138925300Y-79641700D03*
D22*
X140398500Y-78676500D03*
D23*
X124917500Y-71211500D03*
X124917500Y-71711500D03*
X124917500Y-72211500D03*
X124917500Y-72711500D03*
X124917500Y-73211500D03*
X124917500Y-73711500D03*
X124917500Y-74211500D03*
X124917500Y-74711500D03*
D24*
X125567500Y-75361500D03*
X126067500Y-75361500D03*
X126567500Y-75361500D03*
X127067500Y-75361500D03*
X127567500Y-75361500D03*
X128067500Y-75361500D03*
X128567500Y-75361500D03*
X129067500Y-75361500D03*
D23*
X129717500Y-74711500D03*
X129717500Y-74211500D03*
X129717500Y-73711500D03*
X129717500Y-73211500D03*
X129717500Y-72711500D03*
X129717500Y-72211500D03*
X129717500Y-71711500D03*
X129717500Y-71211500D03*
D24*
X129067500Y-70561500D03*
X128567500Y-70561500D03*
X128067500Y-70561500D03*
X127567500Y-70561500D03*
X127067500Y-70561500D03*
X126567500Y-70561500D03*
X126067500Y-70561500D03*
X125567500Y-70561500D03*
D25*
X128180000Y-73824000D03*
X128180000Y-72099000D03*
X126455000Y-73824000D03*
X126455000Y-72099000D03*
D26*
X140365500Y-74104500D03*
X140365500Y-72834500D03*
X140365500Y-71564500D03*
X140365500Y-70294500D03*
X133065500Y-70294500D03*
X133065500Y-71564500D03*
X133065500Y-72834500D03*
X133065500Y-74104500D03*
D27*
X140017500Y-77914500D03*
X140779500Y-77914500D03*
X140017500Y-78676500D03*
X140779500Y-78676500D03*
X140017500Y-79438500D03*
X140779500Y-79438500D03*
X126174500Y-71818500D03*
X126936500Y-71818500D03*
X127698500Y-71818500D03*
X128460500Y-71818500D03*
X126174500Y-72580500D03*
X126174500Y-73342500D03*
X126174500Y-74104500D03*
X126936500Y-72580500D03*
X127698500Y-72580500D03*
X128460500Y-72580500D03*
X126936500Y-73342500D03*
X127698500Y-73342500D03*
X128460500Y-73342500D03*
X126936500Y-74104500D03*
X127698500Y-74104500D03*
X128460500Y-74104500D03*
X142748000Y-76644500D03*
D28*
X111061500Y-70231000D03*
D27*
X117348000Y-75450700D03*
X116586000Y-78955900D03*
X116586000Y-79717900D03*
X116586000Y-80479900D03*
X116586000Y-81241900D03*
X116586000Y-82003900D03*
X116586000Y-82765900D03*
X116586000Y-83527900D03*
X116586000Y-74803000D03*
X116586000Y-75463400D03*
X116586000Y-78168500D03*
X117348000Y-77406500D03*
X116586000Y-77406500D03*
X115189000Y-83375500D03*
D29*
X116967000Y-75120500D03*
D30*
X116967000Y-80581500D03*
D31*
X117475000Y-76454000D03*
D27*
X116967000Y-85217000D03*
X120269000Y-68580000D03*
X114300000Y-70104000D03*
X118364000Y-70294500D03*
X140335000Y-70294500D03*
X142938500Y-72136000D03*
X136906000Y-76835000D03*
X137985500Y-68770500D03*
X132715000Y-80010000D03*
D32*
X121602500Y-72707500D03*
X121602500Y-70358000D03*
X133096000Y-76263500D03*
X130111500Y-77533500D03*
X139827000Y-80518000D03*
X125412500Y-76962000D03*
X133731000Y-68008500D03*
X140652500Y-68008500D03*
X127825500Y-68643500D03*
X126873000Y-68643500D03*
X122936000Y-75692000D03*
X128778000Y-68643500D03*
X121856500Y-82867500D03*
X129730500Y-68643500D03*
X122174000Y-76073000D03*
X126619000Y-80835500D03*
X120269000Y-80645000D03*
X126492000Y-83375500D03*
X124777500Y-70358000D03*
X124333000Y-75311000D03*
X118046500Y-72517000D03*
X119697500Y-72517000D03*
X136525000Y-74993500D03*
X134747000Y-71628000D03*
X128333500Y-77279500D03*
X132207000Y-76835000D03*
X123761500Y-70358000D03*
X130937000Y-73914000D03*
X134810500Y-74168000D03*
X131445000Y-72961500D03*
X135763000Y-74168000D03*
X135763000Y-72771000D03*
X131445000Y-71564500D03*
D33*
X143446500Y-84645500D02*
X143446500Y-82105500D01*
D34*
X142494000Y-77711300D02*
X142494000Y-76390500D01*
X142494000Y-76390500D02*
X142938500Y-75946000D01*
D35*
X142303500Y-75946000D02*
X142303500Y-77343000D01*
X142315500Y-74422000D02*
X142315500Y-75426000D01*
D33*
X143065500Y-76073000D02*
X142938500Y-75946000D01*
D34*
X142303500Y-77343000D02*
X143065500Y-77343000D01*
D33*
X143065500Y-76073000D02*
X143065500Y-77343000D01*
X142938500Y-75946000D02*
X142303500Y-75946000D01*
X142303500Y-75946000D02*
X141986000Y-75946000D01*
D35*
X141986000Y-75755500D02*
X141986000Y-75946000D01*
X142315500Y-75426000D02*
X141986000Y-75755500D01*
X142315500Y-74422000D02*
X142315500Y-73648000D01*
X142938500Y-73025000D02*
X142938500Y-72112000D01*
X142315500Y-73648000D02*
X142938500Y-73025000D01*
D34*
X140365500Y-70294500D02*
X142303500Y-70294500D01*
X142938500Y-70929500D02*
X142938500Y-72112000D01*
X142303500Y-70294500D02*
X142938500Y-70929500D01*
X139497500Y-68389500D02*
X139573000Y-68389500D01*
X139573000Y-68389500D02*
X140365500Y-69182000D01*
D35*
X140365500Y-70294500D02*
X140365500Y-69182000D01*
D34*
X116184500Y-68669000D02*
X114377000Y-68669000D01*
X114377000Y-68669000D02*
X114300000Y-68592000D01*
X118384500Y-70269000D02*
X120092000Y-70269000D01*
X120092000Y-70269000D02*
X120269000Y-70092000D01*
D36*
X116184500Y-68669000D02*
X116484500Y-68669000D01*
X116484500Y-68669000D02*
X118084500Y-70269000D01*
X118084500Y-70269000D02*
X118384500Y-70269000D01*
X114377000Y-68669000D02*
X114300000Y-68592000D01*
X120092000Y-70269000D02*
X120269000Y-70092000D01*
D34*
X136576500Y-68389500D02*
X136576500Y-70155500D01*
X139382500Y-70294500D02*
X140365500Y-70294500D01*
X139001500Y-70675500D02*
X139382500Y-70294500D01*
X137096500Y-70675500D02*
X139001500Y-70675500D01*
X136576500Y-70155500D02*
X137096500Y-70675500D01*
D36*
X139497500Y-68389500D02*
X139497500Y-68504500D01*
X128180000Y-73824000D02*
X126455000Y-73824000D01*
X126455000Y-72099000D02*
X126455000Y-73824000D01*
X128180000Y-72099000D02*
X126455000Y-72099000D01*
X128079500Y-73787000D02*
X128116500Y-73824000D01*
D34*
X141871700Y-77343000D02*
X142303500Y-77343000D01*
X141871700Y-77711300D02*
X142494000Y-77711300D01*
X142494000Y-77711300D02*
X143294800Y-77711300D01*
X143294800Y-77711300D02*
X143446500Y-77863000D01*
X141871700Y-77711300D02*
X141871700Y-77343000D01*
X141871700Y-77343000D02*
X141871700Y-76276200D01*
X141871700Y-76276200D02*
X141605000Y-76009500D01*
X141605000Y-76009500D02*
X141275500Y-76009500D01*
X138925300Y-78676500D02*
X140398500Y-78676500D01*
X141871700Y-77711300D02*
X141236700Y-77711300D01*
X141236700Y-77711300D02*
X140398500Y-78549500D01*
X140398500Y-78549500D02*
X140398500Y-78676500D01*
X138925300Y-78346300D02*
X138925300Y-78676500D01*
X138925300Y-78676500D02*
X138925300Y-79006700D01*
X138925300Y-78346300D02*
X140068300Y-78346300D01*
X140068300Y-78346300D02*
X140398500Y-78676500D01*
X138925300Y-79006700D02*
X140068300Y-79006700D01*
X140068300Y-79006700D02*
X140398500Y-78676500D01*
X141871700Y-79006700D02*
X140728700Y-79006700D01*
X140728700Y-79006700D02*
X140398500Y-78676500D01*
D36*
X143294800Y-77711300D02*
X143446500Y-77863000D01*
D34*
X139814300Y-79387700D02*
X140144500Y-79057500D01*
X139814300Y-78727300D02*
X140144500Y-79057500D01*
X140982700Y-78092300D02*
X140144500Y-78930500D01*
X140144500Y-78930500D02*
X140144500Y-79057500D01*
D35*
X140144500Y-78994000D02*
X140144500Y-79057500D01*
D36*
X128116500Y-73824000D02*
X128180000Y-73824000D01*
X117475000Y-76454000D02*
X115189000Y-76454000D01*
X115189000Y-76454000D02*
X115189000Y-83375500D01*
D34*
X117475000Y-76454000D02*
X118733000Y-76454000D01*
X118733000Y-76454000D02*
X118872000Y-76315000D01*
X138925300Y-77711300D02*
X138188700Y-77711300D01*
X138049000Y-77851000D02*
X138049000Y-79946500D01*
X138188700Y-77711300D02*
X138049000Y-77851000D01*
X138925300Y-77711300D02*
X138925300Y-76466700D01*
X138925300Y-76466700D02*
X139382500Y-76009500D01*
X139382500Y-76009500D02*
X139775500Y-76009500D01*
X138430000Y-79692500D02*
X138303000Y-79692500D01*
X138303000Y-79692500D02*
X138049000Y-79946500D01*
X138049000Y-79946500D02*
X138049000Y-81788000D01*
X138049000Y-81788000D02*
X138366500Y-82105500D01*
X138366500Y-79692500D02*
X138430000Y-79692500D01*
X138620500Y-79883000D02*
X138620500Y-81851500D01*
X138430000Y-79692500D02*
X138620500Y-79883000D01*
X138620500Y-81851500D02*
X138366500Y-82105500D01*
X138366500Y-79641700D02*
X138366500Y-79692500D01*
X138366500Y-79692500D02*
X138366500Y-82105500D01*
X138925300Y-79641700D02*
X138366500Y-79641700D01*
X138747500Y-81724500D02*
X138366500Y-82105500D01*
X138112500Y-81851500D02*
X138366500Y-82105500D01*
X138366500Y-82105500D02*
X138366500Y-81534000D01*
D33*
X138366500Y-82105500D02*
X138366500Y-84645500D01*
D36*
X141871700Y-78346300D02*
X142417800Y-78346300D01*
X142417800Y-78346300D02*
X143434500Y-79363000D01*
X143434500Y-79363000D02*
X143446500Y-79363000D01*
D35*
X126809500Y-70561500D02*
X126809500Y-69723000D01*
X125793500Y-68707000D02*
X125793500Y-67881500D01*
X126809500Y-69723000D02*
X125793500Y-68707000D01*
X121602500Y-72707500D02*
X121614500Y-72719500D01*
D34*
X133065500Y-75247500D02*
X130556000Y-75247500D01*
D36*
X130556000Y-75247500D02*
X130020000Y-74711500D01*
D34*
X133065500Y-75247500D02*
X132969000Y-75247500D01*
X132969000Y-75247500D02*
X133065500Y-75247500D01*
D35*
X133065500Y-74104500D02*
X133065500Y-75247500D01*
X133065500Y-75247500D02*
X133065500Y-76233000D01*
X133065500Y-76233000D02*
X133096000Y-76263500D01*
D36*
X130111500Y-79807500D02*
X130111500Y-77533500D01*
D35*
X139827000Y-80518000D02*
X142049500Y-80518000D01*
D36*
X126567500Y-76632500D02*
X126555500Y-76644500D01*
X126567500Y-76632500D02*
X126567500Y-75679000D01*
X125730000Y-76644500D02*
X125412500Y-76962000D01*
X126555500Y-76644500D02*
X125730000Y-76644500D01*
D35*
X121614500Y-72719500D02*
X122047000Y-72719500D01*
D36*
X124792502Y-71136500D02*
X124079000Y-71136500D01*
D34*
X121602500Y-71120000D02*
X121619000Y-71136500D01*
X121619000Y-71136500D02*
X124079000Y-71136500D01*
X121602500Y-71120000D02*
X121602500Y-70612000D01*
D35*
X143815500Y-74422000D02*
X144970500Y-74422000D01*
X142938500Y-69112000D02*
X142938500Y-68897500D01*
X142938500Y-68897500D02*
X143129000Y-68707000D01*
X143129000Y-68707000D02*
X144970500Y-68707000D01*
X142938500Y-69112000D02*
X144946500Y-69112000D01*
X144946500Y-69112000D02*
X144970500Y-69088000D01*
X122110500Y-72707500D02*
X122098500Y-72719500D01*
X126809500Y-67881500D02*
X125793500Y-67881500D01*
X133731000Y-68008500D02*
X133604000Y-67881500D01*
X133604000Y-67881500D02*
X126809500Y-67881500D01*
X125793500Y-67881500D02*
X122047000Y-67881500D01*
X121602500Y-68326000D02*
X121602500Y-70358000D01*
X122047000Y-67881500D02*
X121602500Y-68326000D01*
X121602500Y-70358000D02*
X121602500Y-70612000D01*
X122098500Y-72719500D02*
X122047000Y-72719500D01*
D34*
X124917500Y-72453500D02*
X123253500Y-72453500D01*
X123253500Y-72453500D02*
X122987500Y-72719500D01*
X122987500Y-72719500D02*
X122047000Y-72719500D01*
D36*
X124917500Y-72211500D02*
X124917500Y-72453500D01*
X124917500Y-72453500D02*
X124917500Y-72711500D01*
D34*
X141871700Y-79641700D02*
X141935200Y-79641700D01*
X141935200Y-79641700D02*
X142049500Y-79756000D01*
X142049500Y-79756000D02*
X142049500Y-80518000D01*
D35*
X142049500Y-80518000D02*
X144907000Y-80518000D01*
X144907000Y-80518000D02*
X144970500Y-80454500D01*
X144970500Y-80454500D02*
X144970500Y-74422000D01*
X144970500Y-74422000D02*
X144970500Y-69088000D01*
D34*
X133731000Y-68008500D02*
X134112000Y-68008500D01*
X134493000Y-68389500D02*
X135076500Y-68389500D01*
X134112000Y-68008500D02*
X134493000Y-68389500D01*
D35*
X144970500Y-67881500D02*
X140779500Y-67881500D01*
X144970500Y-69088000D02*
X144970500Y-68707000D01*
X144970500Y-68707000D02*
X144970500Y-67881500D01*
X140779500Y-67881500D02*
X140652500Y-68008500D01*
D34*
X133065500Y-74104500D02*
X132842000Y-74104500D01*
D36*
X132524500Y-74104500D02*
X133065500Y-74104500D01*
D34*
X141871700Y-79641700D02*
X141871700Y-79679800D01*
D36*
X126567500Y-70561500D02*
X126809500Y-70561500D01*
X126809500Y-70561500D02*
X127067500Y-70561500D01*
X129286000Y-79807500D02*
X130111500Y-79807500D01*
X130111500Y-79807500D02*
X131000500Y-79807500D01*
X128067500Y-68885500D02*
X127825500Y-68643500D01*
X128067500Y-70561500D02*
X128067500Y-68885500D01*
D34*
X118384500Y-68669000D02*
X120192000Y-68669000D01*
X120192000Y-68669000D02*
X120269000Y-68592000D01*
D36*
X120192000Y-68669000D02*
X120269000Y-68592000D01*
X127567500Y-70561500D02*
X127567500Y-69338000D01*
X127567500Y-69338000D02*
X126873000Y-68643500D01*
D34*
X114300000Y-70092000D02*
X116007500Y-70092000D01*
X116007500Y-70092000D02*
X116184500Y-70269000D01*
D36*
X116007500Y-70092000D02*
X116184500Y-70269000D01*
D34*
X124142500Y-71736502D02*
X118890498Y-71736502D01*
D36*
X124142500Y-71661502D02*
X124142500Y-71736502D01*
X124192498Y-71711500D02*
X124142500Y-71661502D01*
X124917500Y-71711500D02*
X124192498Y-71711500D01*
D34*
X118872000Y-71755000D02*
X118872000Y-74815000D01*
X118890498Y-71736502D02*
X118872000Y-71755000D01*
D36*
X118414800Y-85217000D02*
X118414800Y-80594200D01*
X118808500Y-80200500D02*
X118808500Y-79807500D01*
X118414800Y-80594200D02*
X118808500Y-80200500D01*
X118808500Y-79807500D02*
X118808500Y-79819500D01*
X122936000Y-75692000D02*
X122936000Y-74231500D01*
X122936000Y-74231500D02*
X122936000Y-74219500D01*
X122936000Y-74219500D02*
X122936000Y-74231500D01*
X122936000Y-74231500D02*
X122936000Y-74219500D01*
X122047000Y-74219500D02*
X122936000Y-74219500D01*
X122936000Y-74219500D02*
X124909500Y-74219500D01*
X124909500Y-74219500D02*
X124917500Y-74211500D01*
X128567500Y-70561500D02*
X128567500Y-68854000D01*
X128567500Y-68854000D02*
X128778000Y-68643500D01*
X123126500Y-84137500D02*
X121856500Y-82867500D01*
X129067500Y-69306500D02*
X129730500Y-68643500D01*
X129067500Y-69306500D02*
X129067500Y-70561500D01*
X123126500Y-84645500D02*
X123126500Y-84137500D01*
X120586500Y-76898500D02*
X120217500Y-76898500D01*
X120586500Y-76898500D02*
X121348500Y-76898500D01*
X121348500Y-76898500D02*
X122174000Y-76073000D01*
X120217500Y-76898500D02*
X118808500Y-78307500D01*
X126746000Y-84201000D02*
X126555500Y-84391500D01*
X126936500Y-82804000D02*
X126936500Y-81534000D01*
X126936500Y-82804000D02*
X127317500Y-83185000D01*
X127317500Y-83185000D02*
X127317500Y-83629500D01*
X127571500Y-79807500D02*
X127571500Y-80899000D01*
X126936500Y-81534000D02*
X127571500Y-80899000D01*
X127317500Y-83629500D02*
X126746000Y-84201000D01*
X126555500Y-84391500D02*
X125920500Y-84391500D01*
X125920500Y-84391500D02*
X125666500Y-84645500D01*
X134048500Y-83375500D02*
X129476500Y-83375500D01*
X134048500Y-83375500D02*
X134556500Y-82867500D01*
X134556500Y-82867500D02*
X134556500Y-81343500D01*
X134556500Y-81343500D02*
X135064500Y-80835500D01*
X135064500Y-80835500D02*
X135636000Y-80835500D01*
X135636000Y-80835500D02*
X136144000Y-80327500D01*
X136144000Y-79807500D02*
X136144000Y-80327500D01*
X129476500Y-83375500D02*
X128206500Y-84645500D01*
X136283000Y-79946500D02*
X136144000Y-79807500D01*
X136271000Y-79934500D02*
X136144000Y-79807500D01*
X129476500Y-80835500D02*
X134175500Y-80835500D01*
X128206500Y-82105500D02*
X129476500Y-80835500D01*
X134429500Y-80581500D02*
X134429500Y-79807500D01*
X134175500Y-80835500D02*
X134429500Y-80581500D01*
X119253000Y-85915500D02*
X119253000Y-80708500D01*
X130746500Y-84645500D02*
X129476500Y-85915500D01*
X119253000Y-85915500D02*
X129476500Y-85915500D01*
X120154000Y-79807500D02*
X120713500Y-79807500D01*
X119253000Y-80708500D02*
X120154000Y-79807500D01*
X125857000Y-80708500D02*
X125857000Y-79807500D01*
X125984000Y-80835500D02*
X125857000Y-80708500D01*
X126619000Y-80835500D02*
X125984000Y-80835500D01*
X125793500Y-79871000D02*
X125857000Y-79807500D01*
X122428000Y-80264000D02*
X122428000Y-79807500D01*
X122047000Y-80645000D02*
X122428000Y-80264000D01*
X120269000Y-80645000D02*
X122047000Y-80645000D01*
X124142500Y-79807500D02*
X124142500Y-80518000D01*
X124714000Y-83375500D02*
X124396500Y-83058000D01*
X124396500Y-83058000D02*
X124396500Y-80772000D01*
X126492000Y-83375500D02*
X124714000Y-83375500D01*
X124142500Y-80518000D02*
X124396500Y-80772000D01*
X124981000Y-70561500D02*
X125567500Y-70561500D01*
X124777500Y-70358000D02*
X124981000Y-70561500D01*
X124917500Y-74726500D02*
X124333000Y-75311000D01*
X124917500Y-74726500D02*
X124917500Y-74711500D01*
X111061500Y-70231000D02*
X111061500Y-70866000D01*
X111061500Y-70866000D02*
X111633000Y-71437500D01*
X119697500Y-73469500D02*
X119697500Y-72517000D01*
X123178000Y-73711500D02*
X122936000Y-73469500D01*
X122936000Y-73469500D02*
X119697500Y-73469500D01*
X117856000Y-71437500D02*
X111633000Y-71437500D01*
X123178000Y-73711500D02*
X124917500Y-73711500D01*
X118046500Y-71628000D02*
X117856000Y-71437500D01*
X118046500Y-72517000D02*
X118046500Y-71628000D01*
X128067500Y-75361500D02*
X128067500Y-75997500D01*
X129222500Y-77152500D02*
X129222500Y-78244000D01*
X128067500Y-75997500D02*
X129222500Y-77152500D01*
X129222500Y-78244000D02*
X129286000Y-78307500D01*
X127571500Y-78307500D02*
X129286000Y-78307500D01*
X136525000Y-74993500D02*
X136525000Y-75565000D01*
X136525000Y-75565000D02*
X136144000Y-75946000D01*
X136144000Y-75946000D02*
X136144000Y-78307500D01*
X134747000Y-69850000D02*
X134747000Y-71628000D01*
X133985000Y-69088000D02*
X134747000Y-69850000D01*
X129717500Y-70244000D02*
X129717500Y-71211500D01*
X130873500Y-69088000D02*
X133985000Y-69088000D01*
X129717500Y-70244000D02*
X130873500Y-69088000D01*
X125567500Y-75361500D02*
X125171500Y-75361500D01*
X120713500Y-77724000D02*
X120713500Y-78307500D01*
X120967500Y-77470000D02*
X120713500Y-77724000D01*
X121793000Y-77470000D02*
X120967500Y-77470000D01*
X122618500Y-76644500D02*
X121793000Y-77470000D01*
X123888500Y-76644500D02*
X122618500Y-76644500D01*
X125171500Y-75361500D02*
X123888500Y-76644500D01*
X126067500Y-75361500D02*
X126067500Y-76053000D01*
X122428000Y-77660500D02*
X122428000Y-78307500D01*
X122936000Y-77152500D02*
X122428000Y-77660500D01*
X124142500Y-77152500D02*
X122936000Y-77152500D01*
X125158500Y-76136500D02*
X124142500Y-77152500D01*
X125984000Y-76136500D02*
X125158500Y-76136500D01*
X126067500Y-76053000D02*
X125984000Y-76136500D01*
X128567500Y-75361500D02*
X128567500Y-75799000D01*
X130619500Y-76581000D02*
X131000500Y-76962000D01*
X131000500Y-76962000D02*
X131000500Y-78307500D01*
X129349500Y-76581000D02*
X130619500Y-76581000D01*
X128567500Y-75799000D02*
X129349500Y-76581000D01*
X131000500Y-78307500D02*
X132715000Y-78307500D01*
X134048500Y-77470000D02*
X131762500Y-77470000D01*
X134048500Y-77470000D02*
X134429500Y-77851000D01*
X134429500Y-78307500D02*
X134429500Y-77851000D01*
X130810000Y-76073000D02*
X129603500Y-76073000D01*
X131508500Y-76771500D02*
X130810000Y-76073000D01*
X131508500Y-77216000D02*
X131508500Y-76771500D01*
X131762500Y-77470000D02*
X131508500Y-77216000D01*
X129067500Y-75361500D02*
X129067500Y-75537000D01*
X129067500Y-75537000D02*
X129603500Y-76073000D01*
X132207000Y-76835000D02*
X132339502Y-76835000D01*
X127567500Y-77279500D02*
X128333500Y-77279500D01*
X132466502Y-76962000D02*
X135267000Y-76962000D01*
X132339502Y-76835000D02*
X132466502Y-76962000D01*
X135267000Y-76962000D02*
X135394000Y-76835000D01*
X127317500Y-77660500D02*
X126504000Y-77660500D01*
X127567500Y-77410500D02*
X127317500Y-77660500D01*
X127567500Y-77152500D02*
X127567500Y-77279500D01*
X127567500Y-77279500D02*
X127567500Y-77410500D01*
X126504000Y-77660500D02*
X125857000Y-78307500D01*
X127567500Y-75679000D02*
X127567500Y-77152500D01*
X127067500Y-75361500D02*
X127067500Y-76958000D01*
X124853000Y-77597000D02*
X124142500Y-78307500D01*
X125666500Y-77597000D02*
X124853000Y-77597000D01*
X126111000Y-77152500D02*
X125666500Y-77597000D01*
X126873000Y-77152500D02*
X126111000Y-77152500D01*
X127067500Y-76958000D02*
X126873000Y-77152500D01*
X126067500Y-69806500D02*
X125857000Y-69596000D01*
X125857000Y-69596000D02*
X124079000Y-69596000D01*
X124079000Y-69596000D02*
X123761500Y-69913500D01*
X123761500Y-69913500D02*
X123761500Y-70358000D01*
X126067500Y-70561500D02*
X126067500Y-69806500D01*
X129717500Y-74211500D02*
X130282000Y-74211500D01*
X131635500Y-73723500D02*
X132524500Y-72834500D01*
X131635500Y-74231500D02*
X131635500Y-73723500D01*
X131318000Y-74549000D02*
X131635500Y-74231500D01*
X130619500Y-74549000D02*
X131318000Y-74549000D01*
X130282000Y-74211500D02*
X130619500Y-74549000D01*
X132524500Y-72834500D02*
X133065500Y-72834500D01*
X134810500Y-74168000D02*
X134810500Y-72580500D01*
X134810500Y-72580500D02*
X135255000Y-72136000D01*
X138874500Y-71564500D02*
X140365500Y-71564500D01*
X138303000Y-72136000D02*
X138874500Y-71564500D01*
X135255000Y-72136000D02*
X138303000Y-72136000D01*
X130734500Y-73711500D02*
X130937000Y-73914000D01*
X129717500Y-73711500D02*
X130734500Y-73711500D01*
X131195000Y-73211500D02*
X131445000Y-72961500D01*
X129717500Y-73211500D02*
X131195000Y-73211500D01*
X135826500Y-74104500D02*
X140365500Y-74104500D01*
X135763000Y-74168000D02*
X135826500Y-74104500D01*
X129717500Y-72711500D02*
X130742500Y-72711500D01*
X132684500Y-71945500D02*
X133065500Y-71564500D01*
X132080000Y-71945500D02*
X132684500Y-71945500D01*
X131762500Y-72263000D02*
X132080000Y-71945500D01*
X131191000Y-72263000D02*
X131762500Y-72263000D01*
X130742500Y-72711500D02*
X131191000Y-72263000D01*
X129717500Y-72211500D02*
X130544000Y-72211500D01*
X135763000Y-72771000D02*
X140302000Y-72771000D01*
X131191000Y-71564500D02*
X131445000Y-71564500D01*
X130544000Y-72211500D02*
X131191000Y-71564500D01*
X140302000Y-72771000D02*
X140365500Y-72834500D01*
X129717500Y-71711500D02*
X130282000Y-71711500D01*
X131318000Y-70294500D02*
X133065500Y-70294500D01*
X130683000Y-70929500D02*
X131318000Y-70294500D01*
X130683000Y-71310500D02*
X130683000Y-70929500D01*
X130282000Y-71711500D02*
X130683000Y-71310500D01*
M02*
