G04 #@! TF.FileFunction,Copper,L2,Bot,Signal*
%FSLAX46Y46*%
G04 Gerber Fmt 4.6, Leading zero omitted, Abs format (unit mm)*
G04 Created by KiCad (PCBNEW 4.0.6-e0-6349~53~ubuntu16.04.1) date Sun Jul  2 22:52:24 2017*
%MOMM*%
%LPD*%
G01*
G04 APERTURE LIST*
%ADD10C,0.100000*%
%ADD11R,1.727200X1.727200*%
%ADD12O,1.727200X1.727200*%
%ADD13C,0.381000*%
%ADD14C,1.651000*%
%ADD15R,1.524000X6.350000*%
%ADD16R,1.524000X9.779000*%
%ADD17C,0.600000*%
%ADD18C,0.500000*%
%ADD19C,0.250000*%
%ADD20C,1.000000*%
%ADD21C,0.400000*%
%ADD22C,0.254000*%
G04 APERTURE END LIST*
D10*
D11*
X120586500Y-84645500D03*
D12*
X120586500Y-82105500D03*
X123126500Y-84645500D03*
X123126500Y-82105500D03*
X125666500Y-84645500D03*
X125666500Y-82105500D03*
X128206500Y-84645500D03*
X128206500Y-82105500D03*
X130746500Y-84645500D03*
X130746500Y-82105500D03*
X133286500Y-84645500D03*
X133286500Y-82105500D03*
X135826500Y-84645500D03*
X135826500Y-82105500D03*
X138366500Y-84645500D03*
X138366500Y-82105500D03*
X140906500Y-84645500D03*
X140906500Y-82105500D03*
X143446500Y-84645500D03*
X143446500Y-82105500D03*
D13*
X140017500Y-77914500D03*
X140779500Y-77914500D03*
X140017500Y-78676500D03*
X140779500Y-78676500D03*
X140017500Y-79438500D03*
X140779500Y-79438500D03*
X126174500Y-71818500D03*
X126936500Y-71818500D03*
X127698500Y-71818500D03*
X128460500Y-71818500D03*
X126174500Y-72580500D03*
X126174500Y-73342500D03*
X126174500Y-74104500D03*
X126936500Y-72580500D03*
X127698500Y-72580500D03*
X128460500Y-72580500D03*
X126936500Y-73342500D03*
X127698500Y-73342500D03*
X128460500Y-73342500D03*
X126936500Y-74104500D03*
X127698500Y-74104500D03*
X128460500Y-74104500D03*
X142748000Y-76644500D03*
D14*
X111061500Y-70231000D03*
D13*
X117348000Y-75450700D03*
X116586000Y-78955900D03*
X116586000Y-79717900D03*
X116586000Y-80479900D03*
X116586000Y-81241900D03*
X116586000Y-82003900D03*
X116586000Y-82765900D03*
X116586000Y-83527900D03*
X116586000Y-74803000D03*
X116586000Y-75463400D03*
X116586000Y-78168500D03*
X117348000Y-77406500D03*
X116586000Y-77406500D03*
X115189000Y-83375500D03*
D15*
X115443000Y-80962500D03*
D16*
X116967000Y-79248000D03*
D13*
X116967000Y-85217000D03*
X120269000Y-68580000D03*
X114300000Y-70104000D03*
X118364000Y-70294500D03*
X140335000Y-70294500D03*
X142938500Y-72136000D03*
X136906000Y-76835000D03*
X137985500Y-68770500D03*
X132715000Y-80010000D03*
D17*
X121602500Y-72707500D03*
X121602500Y-70358000D03*
X133096000Y-76263500D03*
X130111500Y-77533500D03*
X139827000Y-80518000D03*
X125412500Y-76962000D03*
X133731000Y-68008500D03*
X140652500Y-68008500D03*
X127825500Y-68643500D03*
X126873000Y-68643500D03*
X122936000Y-75692000D03*
X128778000Y-68643500D03*
X121856500Y-82867500D03*
X129730500Y-68643500D03*
X122174000Y-76073000D03*
X126619000Y-80835500D03*
X120269000Y-80645000D03*
X126492000Y-83375500D03*
X124777500Y-70358000D03*
X124333000Y-75311000D03*
X118046500Y-72517000D03*
X119697500Y-72517000D03*
X136525000Y-74993500D03*
X134747000Y-71628000D03*
X128333500Y-77279500D03*
X132207000Y-76835000D03*
X123761500Y-70358000D03*
X130937000Y-73914000D03*
X134810500Y-74168000D03*
X131445000Y-72961500D03*
X135763000Y-74168000D03*
X135763000Y-72771000D03*
X131445000Y-71564500D03*
D18*
X118173500Y-86614000D02*
X116459000Y-86614000D01*
D19*
X116967000Y-85153500D02*
X116967000Y-79248000D01*
D18*
X117030500Y-86360000D02*
X116967000Y-86296500D01*
X116967000Y-86296500D02*
X116967000Y-79248000D01*
D19*
X117157500Y-86487000D02*
X117284500Y-86614000D01*
D18*
X142557500Y-86614000D02*
X144716500Y-86614000D01*
D19*
X116586000Y-81241900D02*
X115722400Y-81241900D01*
X115722400Y-81241900D02*
X115443000Y-80962500D01*
D18*
X117919500Y-86614000D02*
X117856000Y-86614000D01*
X117856000Y-86614000D02*
X117411500Y-86169500D01*
X117411500Y-86169500D02*
X117411500Y-79692500D01*
X117411500Y-79692500D02*
X116967000Y-79248000D01*
D19*
X117030500Y-86487000D02*
X117030500Y-86360000D01*
D18*
X142557500Y-86614000D02*
X118173500Y-86614000D01*
X118173500Y-86614000D02*
X117919500Y-86614000D01*
X117919500Y-86614000D02*
X117284500Y-86614000D01*
X117284500Y-86614000D02*
X117030500Y-86360000D01*
X143446500Y-84645500D02*
X143446500Y-85725000D01*
X143446500Y-85725000D02*
X142557500Y-86614000D01*
D20*
X138366500Y-84645500D02*
X138366500Y-84010500D01*
X138366500Y-84010500D02*
X138366500Y-82105500D01*
D21*
X130111500Y-77533500D02*
X130619500Y-78041500D01*
D18*
X121602500Y-70358000D02*
X121602500Y-72707500D01*
D21*
X130111500Y-77533500D02*
X130048000Y-77533500D01*
X130048000Y-77533500D02*
X129540000Y-78041500D01*
X130619500Y-78041500D02*
X130619500Y-78105000D01*
X130619500Y-78105000D02*
X130619500Y-78041500D01*
D19*
X130111500Y-77533500D02*
X130111500Y-78041500D01*
D18*
X133096000Y-78041500D02*
X133096000Y-77787500D01*
X133096000Y-76263500D02*
X133096000Y-78041500D01*
D19*
X130111500Y-78041500D02*
X130111500Y-77787500D01*
D18*
X132207000Y-78041500D02*
X132969000Y-78041500D01*
X134747000Y-78041500D02*
X137223500Y-80518000D01*
X137223500Y-80518000D02*
X137541000Y-80518000D01*
X137541000Y-80518000D02*
X139827000Y-80518000D01*
X133413500Y-78041500D02*
X134747000Y-78041500D01*
X132969000Y-78041500D02*
X133413500Y-78041500D01*
X130619500Y-78041500D02*
X132207000Y-78041500D01*
X129984500Y-78041500D02*
X130619500Y-78041500D01*
X129540000Y-78041500D02*
X129984500Y-78041500D01*
X125412500Y-76962000D02*
X125412500Y-77914500D01*
X125412500Y-77914500D02*
X125539500Y-78041500D01*
X125539500Y-78041500D02*
X129540000Y-78041500D01*
X140652500Y-68008500D02*
X133731000Y-68008500D01*
D19*
X127825500Y-68643500D02*
X126936500Y-67754500D01*
X121094500Y-67754500D02*
X120269000Y-68580000D01*
X126936500Y-67754500D02*
X121094500Y-67754500D01*
X126682500Y-68204502D02*
X122485998Y-68204502D01*
X126682500Y-68204502D02*
X126873000Y-68395002D01*
X126873000Y-68395002D02*
X126873000Y-68643500D01*
X114300000Y-68516500D02*
X114300000Y-70104000D01*
X114935000Y-67881500D02*
X114300000Y-68516500D01*
X118364000Y-67881500D02*
X114935000Y-67881500D01*
X119888000Y-69405500D02*
X118364000Y-67881500D01*
X120967500Y-69405500D02*
X119888000Y-69405500D01*
X121285000Y-69405500D02*
X120967500Y-69405500D01*
X122485998Y-68204502D02*
X121285000Y-69405500D01*
X122936000Y-79692500D02*
X122936000Y-75692000D01*
X121158000Y-84074000D02*
X121666000Y-84074000D01*
X124015500Y-83375500D02*
X122364500Y-83375500D01*
X124015500Y-83375500D02*
X124396500Y-82994500D01*
X124396500Y-81153000D02*
X122936000Y-79692500D01*
X122364500Y-83375500D02*
X121666000Y-84074000D01*
X124396500Y-82994500D02*
X124396500Y-81153000D01*
X121158000Y-84074000D02*
X120586500Y-84645500D01*
X126555500Y-69278500D02*
X128143000Y-69278500D01*
X125931504Y-68654504D02*
X126555500Y-69278500D01*
X122428000Y-73787000D02*
X122428000Y-73914000D01*
X122797996Y-68654504D02*
X122428000Y-69024500D01*
X122428000Y-69024500D02*
X122428000Y-73787000D01*
X120904000Y-75438000D02*
X120904000Y-81788000D01*
X122428000Y-73914000D02*
X120904000Y-75438000D01*
X122797996Y-68654504D02*
X125931504Y-68654504D01*
X128143000Y-69278500D02*
X128778000Y-68643500D01*
X120904000Y-81788000D02*
X120586500Y-82105500D01*
X123190000Y-69151500D02*
X125730000Y-69151500D01*
X122999500Y-74168000D02*
X121475500Y-75692000D01*
X121475500Y-75692000D02*
X121475500Y-80454500D01*
X121475500Y-80454500D02*
X121856500Y-80835500D01*
X121856500Y-82867500D02*
X121856500Y-80835500D01*
X123190000Y-69151500D02*
X122999500Y-69342000D01*
X122999500Y-69342000D02*
X122999500Y-73088500D01*
X122999500Y-73088500D02*
X122999500Y-74168000D01*
X128587500Y-69786500D02*
X129730500Y-68643500D01*
X126365000Y-69786500D02*
X128587500Y-69786500D01*
X125730000Y-69151500D02*
X126365000Y-69786500D01*
X122174000Y-76073000D02*
X122174000Y-80073500D01*
X122174000Y-80073500D02*
X122301000Y-80200500D01*
X123126500Y-82105500D02*
X123126500Y-81026000D01*
X123126500Y-81026000D02*
X122301000Y-80200500D01*
X123126500Y-82105500D02*
X123126500Y-81534000D01*
X132651500Y-80073500D02*
X126047500Y-80073500D01*
X126015750Y-80105250D02*
X126047500Y-80073500D01*
X125666500Y-80454500D02*
X126015750Y-80105250D01*
X125666500Y-80454500D02*
X125666500Y-82105500D01*
X132651500Y-80073500D02*
X132715000Y-80010000D01*
X130746500Y-82105500D02*
X129476500Y-80835500D01*
X129476500Y-80835500D02*
X126619000Y-80835500D01*
X119253000Y-85915500D02*
X119253000Y-81470500D01*
X131889500Y-85915500D02*
X132016500Y-85915500D01*
X119253000Y-85915500D02*
X131889500Y-85915500D01*
X133286500Y-84645500D02*
X132016500Y-85915500D01*
X120078500Y-80645000D02*
X120269000Y-80645000D01*
X119253000Y-81470500D02*
X120078500Y-80645000D01*
X132016500Y-83375500D02*
X126492000Y-83375500D01*
X132016500Y-83375500D02*
X133286500Y-82105500D01*
X130746500Y-79311500D02*
X134175500Y-79311500D01*
X123698000Y-71437500D02*
X124777500Y-70358000D01*
X123698000Y-79057500D02*
X123698000Y-74866500D01*
X123952000Y-79311500D02*
X123698000Y-79057500D01*
X130746500Y-79311500D02*
X123952000Y-79311500D01*
X135826500Y-84645500D02*
X134556500Y-83375500D01*
X134556500Y-81343500D02*
X134556500Y-83375500D01*
X123698000Y-74866500D02*
X123698000Y-71437500D01*
X134556500Y-79692500D02*
X134556500Y-81343500D01*
X134175500Y-79311500D02*
X134556500Y-79692500D01*
X130429000Y-78803500D02*
X134493000Y-78803500D01*
X124333000Y-78613000D02*
X124333000Y-75311000D01*
X124523500Y-78803500D02*
X124333000Y-78613000D01*
X130429000Y-78803500D02*
X124523500Y-78803500D01*
X135826500Y-80137000D02*
X135826500Y-82105500D01*
X134493000Y-78803500D02*
X135826500Y-80137000D01*
X119697500Y-72517000D02*
X118046500Y-72517000D01*
X136525000Y-72199500D02*
X136525000Y-74993500D01*
X135953500Y-71628000D02*
X136525000Y-72199500D01*
X134747000Y-71628000D02*
X135953500Y-71628000D01*
X128333500Y-77279500D02*
X129286000Y-77279500D01*
X129286000Y-77279500D02*
X129730500Y-76835000D01*
X129730500Y-76835000D02*
X132207000Y-76835000D01*
X129032000Y-70294500D02*
X129159000Y-70294500D01*
X124073498Y-69601502D02*
X125481502Y-69601502D01*
X123761500Y-70358000D02*
X123761500Y-69913500D01*
X123761500Y-69913500D02*
X124073498Y-69601502D01*
X126174500Y-70294500D02*
X129032000Y-70294500D01*
X125481502Y-69601502D02*
X126174500Y-70294500D01*
X133159500Y-68770500D02*
X137985500Y-68770500D01*
X133032500Y-68643500D02*
X133159500Y-68770500D01*
X133032500Y-67818000D02*
X133032500Y-68643500D01*
X132969000Y-67754500D02*
X133032500Y-67818000D01*
X130492500Y-67754500D02*
X132969000Y-67754500D01*
X130429000Y-67818000D02*
X130492500Y-67754500D01*
X130429000Y-69024500D02*
X130429000Y-67818000D01*
X129159000Y-70294500D02*
X130429000Y-69024500D01*
X130937000Y-73914000D02*
X134556500Y-73914000D01*
X134556500Y-73914000D02*
X134810500Y-74168000D01*
X131445000Y-72961500D02*
X131826000Y-73342500D01*
X135763000Y-73660000D02*
X135763000Y-74168000D01*
X135445500Y-73342500D02*
X135763000Y-73660000D01*
X131826000Y-73342500D02*
X135445500Y-73342500D01*
X132651500Y-72771000D02*
X135763000Y-72771000D01*
X131445000Y-71564500D02*
X132651500Y-72771000D01*
D22*
G36*
X113909677Y-68126177D02*
X113790018Y-68305258D01*
X113748394Y-68514518D01*
X113748000Y-68516500D01*
X113748000Y-69823149D01*
X113682607Y-69980633D01*
X113682393Y-70226290D01*
X113776203Y-70453329D01*
X113949757Y-70627186D01*
X114176633Y-70721393D01*
X114422290Y-70721607D01*
X114649329Y-70627797D01*
X114823186Y-70454243D01*
X114917393Y-70227367D01*
X114917607Y-69981710D01*
X114852000Y-69822928D01*
X114852000Y-68745146D01*
X115163646Y-68433500D01*
X118135354Y-68433500D01*
X119497677Y-69795823D01*
X119676759Y-69915482D01*
X119888000Y-69957500D01*
X120981618Y-69957500D01*
X120875626Y-70212756D01*
X120875374Y-70501975D01*
X120925500Y-70623289D01*
X120925500Y-72442147D01*
X120875626Y-72562256D01*
X120875374Y-72851475D01*
X120985820Y-73118775D01*
X121190150Y-73323461D01*
X121457256Y-73434374D01*
X121746475Y-73434626D01*
X121876000Y-73381107D01*
X121876000Y-73685354D01*
X120513677Y-75047677D01*
X120394018Y-75226758D01*
X120370325Y-75345874D01*
X120352000Y-75438000D01*
X120352000Y-79918072D01*
X120125025Y-79917874D01*
X119857725Y-80028320D01*
X119653039Y-80232650D01*
X119612446Y-80330408D01*
X118862677Y-81080177D01*
X118743018Y-81259258D01*
X118715485Y-81397677D01*
X118701000Y-81470500D01*
X118701000Y-85915500D01*
X118743018Y-86126741D01*
X118862677Y-86305823D01*
X119041759Y-86425482D01*
X119253000Y-86467500D01*
X132016500Y-86467500D01*
X132227742Y-86425482D01*
X132406823Y-86305823D01*
X132856958Y-85855688D01*
X133261216Y-85936100D01*
X133311784Y-85936100D01*
X133805675Y-85837859D01*
X134224376Y-85558092D01*
X134504143Y-85139391D01*
X134556500Y-84876175D01*
X134608857Y-85139391D01*
X134888624Y-85558092D01*
X135307325Y-85837859D01*
X135801216Y-85936100D01*
X135851784Y-85936100D01*
X136345675Y-85837859D01*
X136764376Y-85558092D01*
X137044143Y-85139391D01*
X137096500Y-84876175D01*
X137148857Y-85139391D01*
X137428624Y-85558092D01*
X137847325Y-85837859D01*
X138341216Y-85936100D01*
X138391784Y-85936100D01*
X138885675Y-85837859D01*
X139304376Y-85558092D01*
X139584143Y-85139391D01*
X139636500Y-84876175D01*
X139688857Y-85139391D01*
X139968624Y-85558092D01*
X140387325Y-85837859D01*
X140881216Y-85936100D01*
X140931784Y-85936100D01*
X141425675Y-85837859D01*
X141844376Y-85558092D01*
X142124143Y-85139391D01*
X142222384Y-84645500D01*
X142124143Y-84151609D01*
X141844376Y-83732908D01*
X141425675Y-83453141D01*
X141035347Y-83375500D01*
X141425675Y-83297859D01*
X141844376Y-83018092D01*
X142124143Y-82599391D01*
X142222384Y-82105500D01*
X142124143Y-81611609D01*
X141844376Y-81192908D01*
X141425675Y-80913141D01*
X140931784Y-80814900D01*
X140881216Y-80814900D01*
X140455759Y-80899529D01*
X140553874Y-80663244D01*
X140554126Y-80374025D01*
X140443680Y-80106725D01*
X140239350Y-79902039D01*
X139972244Y-79791126D01*
X139683025Y-79790874D01*
X139561711Y-79841000D01*
X137503922Y-79841000D01*
X135225711Y-77562789D01*
X135117885Y-77490742D01*
X135006077Y-77416034D01*
X134747000Y-77364500D01*
X133773000Y-77364500D01*
X133773000Y-76528853D01*
X133822874Y-76408744D01*
X133823126Y-76119525D01*
X133712680Y-75852225D01*
X133508350Y-75647539D01*
X133241244Y-75536626D01*
X132952025Y-75536374D01*
X132684725Y-75646820D01*
X132480039Y-75851150D01*
X132370231Y-76115595D01*
X132352244Y-76108126D01*
X132063025Y-76107874D01*
X131795725Y-76218320D01*
X131730932Y-76283000D01*
X129730500Y-76283000D01*
X129519258Y-76325018D01*
X129340177Y-76444677D01*
X129057354Y-76727500D01*
X128809700Y-76727500D01*
X128745850Y-76663539D01*
X128478744Y-76552626D01*
X128189525Y-76552374D01*
X127922225Y-76662820D01*
X127717539Y-76867150D01*
X127606626Y-77134256D01*
X127606425Y-77364500D01*
X126089500Y-77364500D01*
X126089500Y-77227353D01*
X126139374Y-77107244D01*
X126139626Y-76818025D01*
X126029180Y-76550725D01*
X125824850Y-76346039D01*
X125557744Y-76235126D01*
X125268525Y-76234874D01*
X125001225Y-76345320D01*
X124885000Y-76461343D01*
X124885000Y-75787200D01*
X124948961Y-75723350D01*
X125059874Y-75456244D01*
X125060126Y-75167025D01*
X124949680Y-74899725D01*
X124745350Y-74695039D01*
X124478244Y-74584126D01*
X124250000Y-74583927D01*
X124250000Y-74057975D01*
X130209874Y-74057975D01*
X130320320Y-74325275D01*
X130524650Y-74529961D01*
X130791756Y-74640874D01*
X131080975Y-74641126D01*
X131348275Y-74530680D01*
X131413068Y-74466000D01*
X134147016Y-74466000D01*
X134193820Y-74579275D01*
X134398150Y-74783961D01*
X134665256Y-74894874D01*
X134954475Y-74895126D01*
X135221775Y-74784680D01*
X135286684Y-74719884D01*
X135350650Y-74783961D01*
X135617756Y-74894874D01*
X135798085Y-74895031D01*
X135797874Y-75137475D01*
X135908320Y-75404775D01*
X136112650Y-75609461D01*
X136379756Y-75720374D01*
X136668975Y-75720626D01*
X136936275Y-75610180D01*
X137140961Y-75405850D01*
X137251874Y-75138744D01*
X137252126Y-74849525D01*
X137141680Y-74582225D01*
X137077000Y-74517432D01*
X137077000Y-72199500D01*
X137058133Y-72104650D01*
X137034982Y-71988258D01*
X136915323Y-71809177D01*
X136343823Y-71237677D01*
X136164742Y-71118018D01*
X135953500Y-71076000D01*
X135223200Y-71076000D01*
X135159350Y-71012039D01*
X134892244Y-70901126D01*
X134603025Y-70900874D01*
X134335725Y-71011320D01*
X134131039Y-71215650D01*
X134020126Y-71482756D01*
X134019874Y-71771975D01*
X134130320Y-72039275D01*
X134309732Y-72219000D01*
X132880146Y-72219000D01*
X132172047Y-71510901D01*
X132172126Y-71420525D01*
X132061680Y-71153225D01*
X131857350Y-70948539D01*
X131590244Y-70837626D01*
X131301025Y-70837374D01*
X131033725Y-70947820D01*
X130829039Y-71152150D01*
X130718126Y-71419256D01*
X130717874Y-71708475D01*
X130828320Y-71975775D01*
X131032650Y-72180461D01*
X131231584Y-72263066D01*
X131033725Y-72344820D01*
X130829039Y-72549150D01*
X130718126Y-72816256D01*
X130717874Y-73105475D01*
X130757562Y-73201527D01*
X130525725Y-73297320D01*
X130321039Y-73501650D01*
X130210126Y-73768756D01*
X130209874Y-74057975D01*
X124250000Y-74057975D01*
X124250000Y-71666146D01*
X124831099Y-71085047D01*
X124921475Y-71085126D01*
X125188775Y-70974680D01*
X125393461Y-70770350D01*
X125504374Y-70503244D01*
X125504460Y-70405106D01*
X125784177Y-70684823D01*
X125963258Y-70804482D01*
X126174500Y-70846500D01*
X129159000Y-70846500D01*
X129370242Y-70804482D01*
X129549323Y-70684823D01*
X130819323Y-69414823D01*
X130938982Y-69235742D01*
X130981000Y-69024500D01*
X130981000Y-68306500D01*
X132480500Y-68306500D01*
X132480500Y-68643500D01*
X132522518Y-68854742D01*
X132642177Y-69033823D01*
X132769177Y-69160823D01*
X132948258Y-69280482D01*
X133159500Y-69322500D01*
X137704649Y-69322500D01*
X137862133Y-69387893D01*
X138107790Y-69388107D01*
X138334829Y-69294297D01*
X138508686Y-69120743D01*
X138602893Y-68893867D01*
X138603075Y-68685500D01*
X140387147Y-68685500D01*
X140507256Y-68735374D01*
X140796475Y-68735626D01*
X141063775Y-68625180D01*
X141268461Y-68420850D01*
X141379374Y-68153744D01*
X141379626Y-67864525D01*
X141347593Y-67787000D01*
X145001500Y-67787000D01*
X145001500Y-86708500D01*
X116332000Y-86708500D01*
X116332000Y-72660975D01*
X117319374Y-72660975D01*
X117429820Y-72928275D01*
X117634150Y-73132961D01*
X117901256Y-73243874D01*
X118190475Y-73244126D01*
X118457775Y-73133680D01*
X118522568Y-73069000D01*
X119221300Y-73069000D01*
X119285150Y-73132961D01*
X119552256Y-73243874D01*
X119841475Y-73244126D01*
X120108775Y-73133680D01*
X120313461Y-72929350D01*
X120424374Y-72662244D01*
X120424626Y-72373025D01*
X120314180Y-72105725D01*
X120109850Y-71901039D01*
X119842744Y-71790126D01*
X119553525Y-71789874D01*
X119286225Y-71900320D01*
X119221432Y-71965000D01*
X118522700Y-71965000D01*
X118458850Y-71901039D01*
X118191744Y-71790126D01*
X117902525Y-71789874D01*
X117635225Y-71900320D01*
X117430539Y-72104650D01*
X117319626Y-72371756D01*
X117319374Y-72660975D01*
X116332000Y-72660975D01*
X116332000Y-71183500D01*
X116321994Y-71134090D01*
X116293553Y-71092465D01*
X116251159Y-71065185D01*
X116205000Y-71056500D01*
X113411000Y-71056500D01*
X113411000Y-67787000D01*
X114248854Y-67787000D01*
X113909677Y-68126177D01*
X113909677Y-68126177D01*
G37*
X113909677Y-68126177D02*
X113790018Y-68305258D01*
X113748394Y-68514518D01*
X113748000Y-68516500D01*
X113748000Y-69823149D01*
X113682607Y-69980633D01*
X113682393Y-70226290D01*
X113776203Y-70453329D01*
X113949757Y-70627186D01*
X114176633Y-70721393D01*
X114422290Y-70721607D01*
X114649329Y-70627797D01*
X114823186Y-70454243D01*
X114917393Y-70227367D01*
X114917607Y-69981710D01*
X114852000Y-69822928D01*
X114852000Y-68745146D01*
X115163646Y-68433500D01*
X118135354Y-68433500D01*
X119497677Y-69795823D01*
X119676759Y-69915482D01*
X119888000Y-69957500D01*
X120981618Y-69957500D01*
X120875626Y-70212756D01*
X120875374Y-70501975D01*
X120925500Y-70623289D01*
X120925500Y-72442147D01*
X120875626Y-72562256D01*
X120875374Y-72851475D01*
X120985820Y-73118775D01*
X121190150Y-73323461D01*
X121457256Y-73434374D01*
X121746475Y-73434626D01*
X121876000Y-73381107D01*
X121876000Y-73685354D01*
X120513677Y-75047677D01*
X120394018Y-75226758D01*
X120370325Y-75345874D01*
X120352000Y-75438000D01*
X120352000Y-79918072D01*
X120125025Y-79917874D01*
X119857725Y-80028320D01*
X119653039Y-80232650D01*
X119612446Y-80330408D01*
X118862677Y-81080177D01*
X118743018Y-81259258D01*
X118715485Y-81397677D01*
X118701000Y-81470500D01*
X118701000Y-85915500D01*
X118743018Y-86126741D01*
X118862677Y-86305823D01*
X119041759Y-86425482D01*
X119253000Y-86467500D01*
X132016500Y-86467500D01*
X132227742Y-86425482D01*
X132406823Y-86305823D01*
X132856958Y-85855688D01*
X133261216Y-85936100D01*
X133311784Y-85936100D01*
X133805675Y-85837859D01*
X134224376Y-85558092D01*
X134504143Y-85139391D01*
X134556500Y-84876175D01*
X134608857Y-85139391D01*
X134888624Y-85558092D01*
X135307325Y-85837859D01*
X135801216Y-85936100D01*
X135851784Y-85936100D01*
X136345675Y-85837859D01*
X136764376Y-85558092D01*
X137044143Y-85139391D01*
X137096500Y-84876175D01*
X137148857Y-85139391D01*
X137428624Y-85558092D01*
X137847325Y-85837859D01*
X138341216Y-85936100D01*
X138391784Y-85936100D01*
X138885675Y-85837859D01*
X139304376Y-85558092D01*
X139584143Y-85139391D01*
X139636500Y-84876175D01*
X139688857Y-85139391D01*
X139968624Y-85558092D01*
X140387325Y-85837859D01*
X140881216Y-85936100D01*
X140931784Y-85936100D01*
X141425675Y-85837859D01*
X141844376Y-85558092D01*
X142124143Y-85139391D01*
X142222384Y-84645500D01*
X142124143Y-84151609D01*
X141844376Y-83732908D01*
X141425675Y-83453141D01*
X141035347Y-83375500D01*
X141425675Y-83297859D01*
X141844376Y-83018092D01*
X142124143Y-82599391D01*
X142222384Y-82105500D01*
X142124143Y-81611609D01*
X141844376Y-81192908D01*
X141425675Y-80913141D01*
X140931784Y-80814900D01*
X140881216Y-80814900D01*
X140455759Y-80899529D01*
X140553874Y-80663244D01*
X140554126Y-80374025D01*
X140443680Y-80106725D01*
X140239350Y-79902039D01*
X139972244Y-79791126D01*
X139683025Y-79790874D01*
X139561711Y-79841000D01*
X137503922Y-79841000D01*
X135225711Y-77562789D01*
X135117885Y-77490742D01*
X135006077Y-77416034D01*
X134747000Y-77364500D01*
X133773000Y-77364500D01*
X133773000Y-76528853D01*
X133822874Y-76408744D01*
X133823126Y-76119525D01*
X133712680Y-75852225D01*
X133508350Y-75647539D01*
X133241244Y-75536626D01*
X132952025Y-75536374D01*
X132684725Y-75646820D01*
X132480039Y-75851150D01*
X132370231Y-76115595D01*
X132352244Y-76108126D01*
X132063025Y-76107874D01*
X131795725Y-76218320D01*
X131730932Y-76283000D01*
X129730500Y-76283000D01*
X129519258Y-76325018D01*
X129340177Y-76444677D01*
X129057354Y-76727500D01*
X128809700Y-76727500D01*
X128745850Y-76663539D01*
X128478744Y-76552626D01*
X128189525Y-76552374D01*
X127922225Y-76662820D01*
X127717539Y-76867150D01*
X127606626Y-77134256D01*
X127606425Y-77364500D01*
X126089500Y-77364500D01*
X126089500Y-77227353D01*
X126139374Y-77107244D01*
X126139626Y-76818025D01*
X126029180Y-76550725D01*
X125824850Y-76346039D01*
X125557744Y-76235126D01*
X125268525Y-76234874D01*
X125001225Y-76345320D01*
X124885000Y-76461343D01*
X124885000Y-75787200D01*
X124948961Y-75723350D01*
X125059874Y-75456244D01*
X125060126Y-75167025D01*
X124949680Y-74899725D01*
X124745350Y-74695039D01*
X124478244Y-74584126D01*
X124250000Y-74583927D01*
X124250000Y-74057975D01*
X130209874Y-74057975D01*
X130320320Y-74325275D01*
X130524650Y-74529961D01*
X130791756Y-74640874D01*
X131080975Y-74641126D01*
X131348275Y-74530680D01*
X131413068Y-74466000D01*
X134147016Y-74466000D01*
X134193820Y-74579275D01*
X134398150Y-74783961D01*
X134665256Y-74894874D01*
X134954475Y-74895126D01*
X135221775Y-74784680D01*
X135286684Y-74719884D01*
X135350650Y-74783961D01*
X135617756Y-74894874D01*
X135798085Y-74895031D01*
X135797874Y-75137475D01*
X135908320Y-75404775D01*
X136112650Y-75609461D01*
X136379756Y-75720374D01*
X136668975Y-75720626D01*
X136936275Y-75610180D01*
X137140961Y-75405850D01*
X137251874Y-75138744D01*
X137252126Y-74849525D01*
X137141680Y-74582225D01*
X137077000Y-74517432D01*
X137077000Y-72199500D01*
X137058133Y-72104650D01*
X137034982Y-71988258D01*
X136915323Y-71809177D01*
X136343823Y-71237677D01*
X136164742Y-71118018D01*
X135953500Y-71076000D01*
X135223200Y-71076000D01*
X135159350Y-71012039D01*
X134892244Y-70901126D01*
X134603025Y-70900874D01*
X134335725Y-71011320D01*
X134131039Y-71215650D01*
X134020126Y-71482756D01*
X134019874Y-71771975D01*
X134130320Y-72039275D01*
X134309732Y-72219000D01*
X132880146Y-72219000D01*
X132172047Y-71510901D01*
X132172126Y-71420525D01*
X132061680Y-71153225D01*
X131857350Y-70948539D01*
X131590244Y-70837626D01*
X131301025Y-70837374D01*
X131033725Y-70947820D01*
X130829039Y-71152150D01*
X130718126Y-71419256D01*
X130717874Y-71708475D01*
X130828320Y-71975775D01*
X131032650Y-72180461D01*
X131231584Y-72263066D01*
X131033725Y-72344820D01*
X130829039Y-72549150D01*
X130718126Y-72816256D01*
X130717874Y-73105475D01*
X130757562Y-73201527D01*
X130525725Y-73297320D01*
X130321039Y-73501650D01*
X130210126Y-73768756D01*
X130209874Y-74057975D01*
X124250000Y-74057975D01*
X124250000Y-71666146D01*
X124831099Y-71085047D01*
X124921475Y-71085126D01*
X125188775Y-70974680D01*
X125393461Y-70770350D01*
X125504374Y-70503244D01*
X125504460Y-70405106D01*
X125784177Y-70684823D01*
X125963258Y-70804482D01*
X126174500Y-70846500D01*
X129159000Y-70846500D01*
X129370242Y-70804482D01*
X129549323Y-70684823D01*
X130819323Y-69414823D01*
X130938982Y-69235742D01*
X130981000Y-69024500D01*
X130981000Y-68306500D01*
X132480500Y-68306500D01*
X132480500Y-68643500D01*
X132522518Y-68854742D01*
X132642177Y-69033823D01*
X132769177Y-69160823D01*
X132948258Y-69280482D01*
X133159500Y-69322500D01*
X137704649Y-69322500D01*
X137862133Y-69387893D01*
X138107790Y-69388107D01*
X138334829Y-69294297D01*
X138508686Y-69120743D01*
X138602893Y-68893867D01*
X138603075Y-68685500D01*
X140387147Y-68685500D01*
X140507256Y-68735374D01*
X140796475Y-68735626D01*
X141063775Y-68625180D01*
X141268461Y-68420850D01*
X141379374Y-68153744D01*
X141379626Y-67864525D01*
X141347593Y-67787000D01*
X145001500Y-67787000D01*
X145001500Y-86708500D01*
X116332000Y-86708500D01*
X116332000Y-72660975D01*
X117319374Y-72660975D01*
X117429820Y-72928275D01*
X117634150Y-73132961D01*
X117901256Y-73243874D01*
X118190475Y-73244126D01*
X118457775Y-73133680D01*
X118522568Y-73069000D01*
X119221300Y-73069000D01*
X119285150Y-73132961D01*
X119552256Y-73243874D01*
X119841475Y-73244126D01*
X120108775Y-73133680D01*
X120313461Y-72929350D01*
X120424374Y-72662244D01*
X120424626Y-72373025D01*
X120314180Y-72105725D01*
X120109850Y-71901039D01*
X119842744Y-71790126D01*
X119553525Y-71789874D01*
X119286225Y-71900320D01*
X119221432Y-71965000D01*
X118522700Y-71965000D01*
X118458850Y-71901039D01*
X118191744Y-71790126D01*
X117902525Y-71789874D01*
X117635225Y-71900320D01*
X117430539Y-72104650D01*
X117319626Y-72371756D01*
X117319374Y-72660975D01*
X116332000Y-72660975D01*
X116332000Y-71183500D01*
X116321994Y-71134090D01*
X116293553Y-71092465D01*
X116251159Y-71065185D01*
X116205000Y-71056500D01*
X113411000Y-71056500D01*
X113411000Y-67787000D01*
X114248854Y-67787000D01*
X113909677Y-68126177D01*
M02*
