M48
;DRILL file {KiCad 4.0.6-e0-6349~53~ubuntu16.04.1} date Sun Jul  2 22:52:30 2017
;FORMAT={-:-/ absolute / inch / decimal}
FMAT,2
INCH,TZ
T1C0.010
T2C0.016
T3C0.040
%
G90
G05
M72
T1
X4.5Y-2.76
X4.535Y-3.2825
X4.59Y-2.945
X4.59Y-2.971
X4.59Y-3.0475
X4.59Y-3.0775
X4.59Y-3.1085
X4.59Y-3.1385
X4.59Y-3.1685
X4.59Y-3.1985
X4.59Y-3.2285
X4.59Y-3.2585
X4.59Y-3.2885
X4.605Y-3.355
X4.62Y-2.9705
X4.62Y-3.0475
X4.66Y-2.7675
X4.735Y-2.7
X4.9675Y-2.8275
X4.9675Y-2.8575
X4.9675Y-2.8875
X4.9675Y-2.9175
X4.9975Y-2.8275
X4.9975Y-2.8575
X4.9975Y-2.8875
X4.9975Y-2.9175
X5.0275Y-2.8275
X5.0275Y-2.8575
X5.0275Y-2.8875
X5.0275Y-2.9175
X5.0575Y-2.8275
X5.0575Y-2.8575
X5.0575Y-2.8875
X5.0575Y-2.9175
X5.225Y-3.15
X5.39Y-3.025
X5.4325Y-2.7075
X5.5125Y-3.0675
X5.5125Y-3.0975
X5.5125Y-3.1275
X5.525Y-2.7675
X5.5425Y-3.0675
X5.5425Y-3.0975
X5.5425Y-3.1275
X5.62Y-3.0175
X5.6275Y-2.84
T2
X4.6475Y-2.855
X4.7125Y-2.855
X4.735Y-3.175
X4.7875Y-2.77
X4.7875Y-2.8625
X4.7975Y-3.2625
X4.81Y-2.995
X4.84Y-2.98
X4.8725Y-2.77
X4.895Y-2.965
X4.9125Y-2.77
X4.9375Y-3.03
X4.98Y-3.2825
X4.985Y-3.1825
X4.995Y-2.7025
X5.0325Y-2.7025
X5.0525Y-3.0425
X5.07Y-2.7025
X5.1075Y-2.7025
X5.1225Y-3.0525
X5.155Y-2.91
X5.175Y-2.8175
X5.175Y-2.8725
X5.205Y-3.025
X5.24Y-3.0025
X5.265Y-2.6775
X5.305Y-2.82
X5.3075Y-2.92
X5.345Y-2.865
X5.345Y-2.92
X5.375Y-2.9525
X5.505Y-3.17
X5.5375Y-2.6775
T3
X4.3725Y-2.765
X4.7475Y-3.2325
X4.7475Y-3.3325
X4.8475Y-3.2325
X4.8475Y-3.3325
X4.9475Y-3.2325
X4.9475Y-3.3325
X5.0475Y-3.2325
X5.0475Y-3.3325
X5.1475Y-3.2325
X5.1475Y-3.3325
X5.2475Y-3.2325
X5.2475Y-3.3325
X5.3475Y-3.2325
X5.3475Y-3.3325
X5.4475Y-3.2325
X5.4475Y-3.3325
X5.5475Y-3.2325
X5.5475Y-3.3325
X5.6475Y-3.2325
X5.6475Y-3.3325
T0
M30
