G04 #@! TF.FileFunction,Soldermask,Bot*
%FSLAX46Y46*%
G04 Gerber Fmt 4.6, Leading zero omitted, Abs format (unit mm)*
G04 Created by KiCad (PCBNEW 4.0.6-e0-6349~53~ubuntu16.04.1) date Sun Jul  2 22:52:24 2017*
%MOMM*%
%LPD*%
G01*
G04 APERTURE LIST*
%ADD10C,0.100000*%
%ADD11R,1.727200X1.727200*%
%ADD12O,1.727200X1.727200*%
%ADD13C,0.381000*%
%ADD14C,1.651000*%
G04 APERTURE END LIST*
D10*
D11*
X120586500Y-84645500D03*
D12*
X120586500Y-82105500D03*
X123126500Y-84645500D03*
X123126500Y-82105500D03*
X125666500Y-84645500D03*
X125666500Y-82105500D03*
X128206500Y-84645500D03*
X128206500Y-82105500D03*
X130746500Y-84645500D03*
X130746500Y-82105500D03*
X133286500Y-84645500D03*
X133286500Y-82105500D03*
X135826500Y-84645500D03*
X135826500Y-82105500D03*
X138366500Y-84645500D03*
X138366500Y-82105500D03*
X140906500Y-84645500D03*
X140906500Y-82105500D03*
X143446500Y-84645500D03*
X143446500Y-82105500D03*
D13*
X140017500Y-77914500D03*
X140779500Y-77914500D03*
X140017500Y-78676500D03*
X140779500Y-78676500D03*
X140017500Y-79438500D03*
X140779500Y-79438500D03*
X126174500Y-71818500D03*
X126936500Y-71818500D03*
X127698500Y-71818500D03*
X128460500Y-71818500D03*
X126174500Y-72580500D03*
X126174500Y-73342500D03*
X126174500Y-74104500D03*
X126936500Y-72580500D03*
X127698500Y-72580500D03*
X128460500Y-72580500D03*
X126936500Y-73342500D03*
X127698500Y-73342500D03*
X128460500Y-73342500D03*
X126936500Y-74104500D03*
X127698500Y-74104500D03*
X128460500Y-74104500D03*
X142748000Y-76644500D03*
D14*
X111061500Y-70231000D03*
D13*
X116967000Y-85217000D03*
X120269000Y-68580000D03*
X114300000Y-70104000D03*
X118364000Y-70294500D03*
X140335000Y-70294500D03*
X142938500Y-72136000D03*
X136906000Y-76835000D03*
X137985500Y-68770500D03*
X132715000Y-80010000D03*
M02*
