G04 #@! TF.FileFunction,Paste,Top*
%FSLAX46Y46*%
G04 Gerber Fmt 4.6, Leading zero omitted, Abs format (unit mm)*
G04 Created by KiCad (PCBNEW 4.0.6-e0-6349~53~ubuntu16.04.1) date Sun Jul  2 22:52:24 2017*
%MOMM*%
%LPD*%
G01*
G04 APERTURE LIST*
%ADD10C,0.100000*%
%ADD11R,1.400000X1.200000*%
%ADD12R,0.750000X0.800000*%
%ADD13R,0.800000X0.750000*%
%ADD14R,1.600000X1.000000*%
%ADD15R,0.797560X0.797560*%
%ADD16R,0.900000X0.500000*%
%ADD17R,0.500000X0.900000*%
%ADD18R,0.812800X0.381000*%
%ADD19R,1.651000X2.387600*%
%ADD20R,0.700000X0.250000*%
%ADD21R,0.250000X0.700000*%
%ADD22R,1.035000X1.035000*%
%ADD23R,1.700000X0.650000*%
G04 APERTURE END LIST*
D10*
D11*
X118384500Y-68669000D03*
X116184500Y-68669000D03*
X118384500Y-70269000D03*
X116184500Y-70269000D03*
D12*
X118872000Y-76315000D03*
X118872000Y-74815000D03*
D13*
X139775500Y-76009500D03*
X141275500Y-76009500D03*
D12*
X143446500Y-79363000D03*
X143446500Y-77863000D03*
D14*
X142938500Y-69112000D03*
X142938500Y-72112000D03*
D12*
X120269000Y-68592000D03*
X120269000Y-70092000D03*
X114300000Y-70092000D03*
X114300000Y-68592000D03*
D13*
X135076500Y-68389500D03*
X136576500Y-68389500D03*
X143815500Y-74422000D03*
X142315500Y-74422000D03*
D15*
X118414800Y-85217000D03*
X116916200Y-85217000D03*
D16*
X127571500Y-79807500D03*
X127571500Y-78307500D03*
X136144000Y-79807500D03*
X136144000Y-78307500D03*
X120713500Y-79807500D03*
X120713500Y-78307500D03*
X122428000Y-79807500D03*
X122428000Y-78307500D03*
X118808500Y-79807500D03*
X118808500Y-78307500D03*
X132715000Y-78307500D03*
X132715000Y-79807500D03*
X134429500Y-78307500D03*
X134429500Y-79807500D03*
X125857000Y-78307500D03*
X125857000Y-79807500D03*
X124142500Y-78307500D03*
X124142500Y-79807500D03*
X122047000Y-74219500D03*
X122047000Y-72719500D03*
D17*
X137997500Y-68389500D03*
X139497500Y-68389500D03*
X136894000Y-76835000D03*
X135394000Y-76835000D03*
D16*
X129286000Y-79807500D03*
X129286000Y-78307500D03*
X131000500Y-79807500D03*
X131000500Y-78307500D03*
D18*
X141871700Y-79641700D03*
X141871700Y-79006700D03*
X141871700Y-78346300D03*
X141871700Y-77711300D03*
X138925300Y-77711300D03*
X138925300Y-78346300D03*
X138925300Y-79006700D03*
X138925300Y-79641700D03*
D19*
X140398500Y-78676500D03*
D20*
X124917500Y-71211500D03*
X124917500Y-71711500D03*
X124917500Y-72211500D03*
X124917500Y-72711500D03*
X124917500Y-73211500D03*
X124917500Y-73711500D03*
X124917500Y-74211500D03*
X124917500Y-74711500D03*
D21*
X125567500Y-75361500D03*
X126067500Y-75361500D03*
X126567500Y-75361500D03*
X127067500Y-75361500D03*
X127567500Y-75361500D03*
X128067500Y-75361500D03*
X128567500Y-75361500D03*
X129067500Y-75361500D03*
D20*
X129717500Y-74711500D03*
X129717500Y-74211500D03*
X129717500Y-73711500D03*
X129717500Y-73211500D03*
X129717500Y-72711500D03*
X129717500Y-72211500D03*
X129717500Y-71711500D03*
X129717500Y-71211500D03*
D21*
X129067500Y-70561500D03*
X128567500Y-70561500D03*
X128067500Y-70561500D03*
X127567500Y-70561500D03*
X127067500Y-70561500D03*
X126567500Y-70561500D03*
X126067500Y-70561500D03*
X125567500Y-70561500D03*
D22*
X128180000Y-73824000D03*
X128180000Y-72099000D03*
X126455000Y-73824000D03*
X126455000Y-72099000D03*
D23*
X140365500Y-74104500D03*
X140365500Y-72834500D03*
X140365500Y-71564500D03*
X140365500Y-70294500D03*
X133065500Y-70294500D03*
X133065500Y-71564500D03*
X133065500Y-72834500D03*
X133065500Y-74104500D03*
M02*
