G04 #@! TF.FileFunction,Legend,Top*
%FSLAX46Y46*%
G04 Gerber Fmt 4.6, Leading zero omitted, Abs format (unit mm)*
G04 Created by KiCad (PCBNEW 4.0.6-e0-6349~53~ubuntu16.04.1) date Sun Jul  2 22:52:24 2017*
%MOMM*%
%LPD*%
G01*
G04 APERTURE LIST*
%ADD10C,0.100000*%
%ADD11C,0.127000*%
%ADD12C,0.010000*%
%ADD13C,0.150000*%
%ADD14C,0.152400*%
G04 APERTURE END LIST*
D10*
D11*
X128832430Y-86012262D02*
X129013859Y-86647262D01*
X129159002Y-86193690D01*
X129304144Y-86647262D01*
X129485573Y-86012262D01*
X129775859Y-86647262D02*
X129775859Y-86223929D01*
X129775859Y-86012262D02*
X129739573Y-86042500D01*
X129775859Y-86072738D01*
X129812144Y-86042500D01*
X129775859Y-86012262D01*
X129775859Y-86072738D01*
X130392716Y-86314643D02*
X130138716Y-86314643D01*
X130138716Y-86647262D02*
X130138716Y-86012262D01*
X130501573Y-86012262D01*
X130791859Y-86647262D02*
X130791859Y-86223929D01*
X130791859Y-86012262D02*
X130755573Y-86042500D01*
X130791859Y-86072738D01*
X130828144Y-86042500D01*
X130791859Y-86012262D01*
X130791859Y-86072738D01*
X131045858Y-86012262D02*
X131481287Y-86012262D01*
X131263573Y-86647262D02*
X131263573Y-86012262D01*
X131735287Y-86647262D02*
X131735287Y-86223929D01*
X131735287Y-86012262D02*
X131699001Y-86042500D01*
X131735287Y-86072738D01*
X131771572Y-86042500D01*
X131735287Y-86012262D01*
X131735287Y-86072738D01*
X132424715Y-86617024D02*
X132352144Y-86647262D01*
X132207001Y-86647262D01*
X132134429Y-86617024D01*
X132098144Y-86586786D01*
X132061858Y-86526310D01*
X132061858Y-86344881D01*
X132098144Y-86284405D01*
X132134429Y-86254167D01*
X132207001Y-86223929D01*
X132352144Y-86223929D01*
X132424715Y-86254167D01*
X132751287Y-86647262D02*
X132751287Y-86012262D01*
X132823858Y-86405357D02*
X133041572Y-86647262D01*
X133041572Y-86223929D02*
X132751287Y-86465833D01*
X133876143Y-86223929D02*
X134057572Y-86647262D01*
X134239000Y-86223929D01*
X134456714Y-86012262D02*
X134928428Y-86012262D01*
X134674428Y-86254167D01*
X134783286Y-86254167D01*
X134855857Y-86284405D01*
X134892143Y-86314643D01*
X134928428Y-86375119D01*
X134928428Y-86526310D01*
X134892143Y-86586786D01*
X134855857Y-86617024D01*
X134783286Y-86647262D01*
X134565571Y-86647262D01*
X134493000Y-86617024D01*
X134456714Y-86586786D01*
X136452428Y-86163452D02*
X136379856Y-86133214D01*
X136234713Y-86133214D01*
X136162142Y-86163452D01*
X136089571Y-86223929D01*
X136053285Y-86284405D01*
X136053285Y-86405357D01*
X136089571Y-86465833D01*
X136162142Y-86526310D01*
X136234713Y-86556548D01*
X136379856Y-86556548D01*
X136452428Y-86526310D01*
X136307285Y-85921548D02*
X136125856Y-85951786D01*
X135944428Y-86042500D01*
X135835571Y-86193690D01*
X135799285Y-86344881D01*
X135835571Y-86496071D01*
X135944428Y-86647262D01*
X136125856Y-86737976D01*
X136307285Y-86768214D01*
X136488713Y-86737976D01*
X136670142Y-86647262D01*
X136778999Y-86496071D01*
X136815285Y-86344881D01*
X136778999Y-86193690D01*
X136670142Y-86042500D01*
X136488713Y-85951786D01*
X136307285Y-85921548D01*
X137686142Y-86465833D02*
X138048999Y-86465833D01*
X137613570Y-86647262D02*
X137867570Y-86012262D01*
X138121570Y-86647262D01*
X138375571Y-86586786D02*
X138411856Y-86617024D01*
X138375571Y-86647262D01*
X138339285Y-86617024D01*
X138375571Y-86586786D01*
X138375571Y-86647262D01*
X139210141Y-86012262D02*
X139645570Y-86012262D01*
X139427856Y-86647262D02*
X139427856Y-86012262D01*
X140189855Y-86617024D02*
X140117284Y-86647262D01*
X139972141Y-86647262D01*
X139899570Y-86617024D01*
X139863284Y-86556548D01*
X139863284Y-86314643D01*
X139899570Y-86254167D01*
X139972141Y-86223929D01*
X140117284Y-86223929D01*
X140189855Y-86254167D01*
X140226141Y-86314643D01*
X140226141Y-86375119D01*
X139863284Y-86435595D01*
X140552713Y-86647262D02*
X140552713Y-86223929D01*
X140552713Y-86344881D02*
X140588998Y-86284405D01*
X140625284Y-86254167D01*
X140697855Y-86223929D01*
X140770427Y-86223929D01*
X140988141Y-86617024D02*
X141060712Y-86647262D01*
X141205855Y-86647262D01*
X141278427Y-86617024D01*
X141314712Y-86556548D01*
X141314712Y-86526310D01*
X141278427Y-86465833D01*
X141205855Y-86435595D01*
X141096998Y-86435595D01*
X141024427Y-86405357D01*
X140988141Y-86344881D01*
X140988141Y-86314643D01*
X141024427Y-86254167D01*
X141096998Y-86223929D01*
X141205855Y-86223929D01*
X141278427Y-86254167D01*
X141532426Y-86223929D02*
X141822712Y-86223929D01*
X141641284Y-86012262D02*
X141641284Y-86556548D01*
X141677569Y-86617024D01*
X141750141Y-86647262D01*
X141822712Y-86647262D01*
X142366998Y-86617024D02*
X142294427Y-86647262D01*
X142149284Y-86647262D01*
X142076713Y-86617024D01*
X142040427Y-86556548D01*
X142040427Y-86314643D01*
X142076713Y-86254167D01*
X142149284Y-86223929D01*
X142294427Y-86223929D01*
X142366998Y-86254167D01*
X142403284Y-86314643D01*
X142403284Y-86375119D01*
X142040427Y-86435595D01*
X143056427Y-86223929D02*
X143056427Y-86737976D01*
X143020141Y-86798452D01*
X142983856Y-86828690D01*
X142911284Y-86858929D01*
X142802427Y-86858929D01*
X142729856Y-86828690D01*
X143056427Y-86617024D02*
X142983856Y-86647262D01*
X142838713Y-86647262D01*
X142766141Y-86617024D01*
X142729856Y-86586786D01*
X142693570Y-86526310D01*
X142693570Y-86344881D01*
X142729856Y-86284405D01*
X142766141Y-86254167D01*
X142838713Y-86223929D01*
X142983856Y-86223929D01*
X143056427Y-86254167D01*
X143745856Y-86223929D02*
X143745856Y-86737976D01*
X143709570Y-86798452D01*
X143673285Y-86828690D01*
X143600713Y-86858929D01*
X143491856Y-86858929D01*
X143419285Y-86828690D01*
X143745856Y-86617024D02*
X143673285Y-86647262D01*
X143528142Y-86647262D01*
X143455570Y-86617024D01*
X143419285Y-86586786D01*
X143382999Y-86526310D01*
X143382999Y-86344881D01*
X143419285Y-86284405D01*
X143455570Y-86254167D01*
X143528142Y-86223929D01*
X143673285Y-86223929D01*
X143745856Y-86254167D01*
X144398999Y-86617024D02*
X144326428Y-86647262D01*
X144181285Y-86647262D01*
X144108714Y-86617024D01*
X144072428Y-86556548D01*
X144072428Y-86314643D01*
X144108714Y-86254167D01*
X144181285Y-86223929D01*
X144326428Y-86223929D01*
X144398999Y-86254167D01*
X144435285Y-86314643D01*
X144435285Y-86375119D01*
X144072428Y-86435595D01*
X109897333Y-68728167D02*
X110320667Y-68728167D01*
X109812667Y-68982167D02*
X110109000Y-68093167D01*
X110405333Y-68982167D01*
X110701667Y-68982167D02*
X110701667Y-68093167D01*
X110913333Y-68093167D01*
X111040333Y-68135500D01*
X111125000Y-68220167D01*
X111167333Y-68304833D01*
X111209667Y-68474167D01*
X111209667Y-68601167D01*
X111167333Y-68770500D01*
X111125000Y-68855167D01*
X111040333Y-68939833D01*
X110913333Y-68982167D01*
X110701667Y-68982167D01*
X112098667Y-68897500D02*
X112056333Y-68939833D01*
X111929333Y-68982167D01*
X111844667Y-68982167D01*
X111717667Y-68939833D01*
X111633000Y-68855167D01*
X111590667Y-68770500D01*
X111548333Y-68601167D01*
X111548333Y-68474167D01*
X111590667Y-68304833D01*
X111633000Y-68220167D01*
X111717667Y-68135500D01*
X111844667Y-68093167D01*
X111929333Y-68093167D01*
X112056333Y-68135500D01*
X112098667Y-68177833D01*
D12*
G36*
X110152298Y-83121781D02*
X110235141Y-83142695D01*
X110360119Y-83175549D01*
X110521121Y-83218700D01*
X110712038Y-83270510D01*
X110926758Y-83329337D01*
X111159172Y-83393543D01*
X111211309Y-83408015D01*
X111450958Y-83474563D01*
X111677786Y-83537489D01*
X111885036Y-83594926D01*
X112065953Y-83645001D01*
X112213780Y-83685847D01*
X112321760Y-83715592D01*
X112383139Y-83732367D01*
X112387945Y-83733658D01*
X112507889Y-83765731D01*
X112507869Y-84229223D01*
X111590611Y-84425321D01*
X111372896Y-84472539D01*
X111174893Y-84516781D01*
X111002826Y-84556555D01*
X110862919Y-84590367D01*
X110761394Y-84616724D01*
X110704477Y-84634134D01*
X110694565Y-84640253D01*
X110726532Y-84650452D01*
X110806898Y-84670322D01*
X110928747Y-84698320D01*
X111085159Y-84732901D01*
X111269215Y-84772520D01*
X111473998Y-84815635D01*
X111562445Y-84833984D01*
X111775399Y-84878106D01*
X111972013Y-84919094D01*
X112145058Y-84955423D01*
X112287303Y-84985563D01*
X112391519Y-85007989D01*
X112450475Y-85021173D01*
X112459605Y-85023471D01*
X112484656Y-85037481D01*
X112498876Y-85069398D01*
X112504319Y-85131050D01*
X112503041Y-85234269D01*
X112501938Y-85267203D01*
X112493778Y-85496344D01*
X111322556Y-85828848D01*
X111074694Y-85898994D01*
X110843043Y-85964129D01*
X110633362Y-86022664D01*
X110451412Y-86073011D01*
X110302955Y-86113580D01*
X110193752Y-86142782D01*
X110129563Y-86159028D01*
X110114997Y-86161898D01*
X110097374Y-86147895D01*
X110087555Y-86099936D01*
X110084674Y-86010076D01*
X110086774Y-85902915D01*
X110094889Y-85643386D01*
X110991034Y-85458445D01*
X111261317Y-85401839D01*
X111477393Y-85354730D01*
X111640632Y-85316778D01*
X111752407Y-85287646D01*
X111814090Y-85266994D01*
X111827055Y-85254483D01*
X111823589Y-85252816D01*
X111785209Y-85243465D01*
X111700722Y-85224737D01*
X111578407Y-85198356D01*
X111426542Y-85166045D01*
X111253405Y-85129528D01*
X111067274Y-85090528D01*
X110876427Y-85050769D01*
X110689142Y-85011973D01*
X110513697Y-84975866D01*
X110358371Y-84944169D01*
X110231442Y-84918606D01*
X110141187Y-84900901D01*
X110095885Y-84892777D01*
X110092623Y-84892445D01*
X110087378Y-84866336D01*
X110083323Y-84796456D01*
X110081056Y-84695475D01*
X110080778Y-84641504D01*
X110081686Y-84521521D01*
X110086252Y-84446403D01*
X110097242Y-84404580D01*
X110117421Y-84384480D01*
X110144278Y-84375733D01*
X110187259Y-84366211D01*
X110277970Y-84346486D01*
X110408946Y-84318168D01*
X110572725Y-84282867D01*
X110761841Y-84242193D01*
X110968831Y-84197758D01*
X111033569Y-84183876D01*
X111239553Y-84138974D01*
X111425365Y-84097033D01*
X111584473Y-84059643D01*
X111710342Y-84028395D01*
X111796438Y-84004879D01*
X111836227Y-83990685D01*
X111837902Y-83988112D01*
X111805744Y-83978113D01*
X111725230Y-83958944D01*
X111603426Y-83932118D01*
X111447401Y-83899147D01*
X111264222Y-83861543D01*
X111060957Y-83820819D01*
X110998000Y-83808393D01*
X110788512Y-83767034D01*
X110595494Y-83728635D01*
X110426329Y-83694686D01*
X110288398Y-83666679D01*
X110189082Y-83646107D01*
X110135764Y-83634460D01*
X110130167Y-83633026D01*
X110106221Y-83618536D01*
X110091400Y-83584688D01*
X110083653Y-83520408D01*
X110080926Y-83414620D01*
X110080778Y-83366543D01*
X110083040Y-83238572D01*
X110090573Y-83159257D01*
X110104495Y-83120960D01*
X110117698Y-83114445D01*
X110152298Y-83121781D01*
X110152298Y-83121781D01*
G37*
X110152298Y-83121781D02*
X110235141Y-83142695D01*
X110360119Y-83175549D01*
X110521121Y-83218700D01*
X110712038Y-83270510D01*
X110926758Y-83329337D01*
X111159172Y-83393543D01*
X111211309Y-83408015D01*
X111450958Y-83474563D01*
X111677786Y-83537489D01*
X111885036Y-83594926D01*
X112065953Y-83645001D01*
X112213780Y-83685847D01*
X112321760Y-83715592D01*
X112383139Y-83732367D01*
X112387945Y-83733658D01*
X112507889Y-83765731D01*
X112507869Y-84229223D01*
X111590611Y-84425321D01*
X111372896Y-84472539D01*
X111174893Y-84516781D01*
X111002826Y-84556555D01*
X110862919Y-84590367D01*
X110761394Y-84616724D01*
X110704477Y-84634134D01*
X110694565Y-84640253D01*
X110726532Y-84650452D01*
X110806898Y-84670322D01*
X110928747Y-84698320D01*
X111085159Y-84732901D01*
X111269215Y-84772520D01*
X111473998Y-84815635D01*
X111562445Y-84833984D01*
X111775399Y-84878106D01*
X111972013Y-84919094D01*
X112145058Y-84955423D01*
X112287303Y-84985563D01*
X112391519Y-85007989D01*
X112450475Y-85021173D01*
X112459605Y-85023471D01*
X112484656Y-85037481D01*
X112498876Y-85069398D01*
X112504319Y-85131050D01*
X112503041Y-85234269D01*
X112501938Y-85267203D01*
X112493778Y-85496344D01*
X111322556Y-85828848D01*
X111074694Y-85898994D01*
X110843043Y-85964129D01*
X110633362Y-86022664D01*
X110451412Y-86073011D01*
X110302955Y-86113580D01*
X110193752Y-86142782D01*
X110129563Y-86159028D01*
X110114997Y-86161898D01*
X110097374Y-86147895D01*
X110087555Y-86099936D01*
X110084674Y-86010076D01*
X110086774Y-85902915D01*
X110094889Y-85643386D01*
X110991034Y-85458445D01*
X111261317Y-85401839D01*
X111477393Y-85354730D01*
X111640632Y-85316778D01*
X111752407Y-85287646D01*
X111814090Y-85266994D01*
X111827055Y-85254483D01*
X111823589Y-85252816D01*
X111785209Y-85243465D01*
X111700722Y-85224737D01*
X111578407Y-85198356D01*
X111426542Y-85166045D01*
X111253405Y-85129528D01*
X111067274Y-85090528D01*
X110876427Y-85050769D01*
X110689142Y-85011973D01*
X110513697Y-84975866D01*
X110358371Y-84944169D01*
X110231442Y-84918606D01*
X110141187Y-84900901D01*
X110095885Y-84892777D01*
X110092623Y-84892445D01*
X110087378Y-84866336D01*
X110083323Y-84796456D01*
X110081056Y-84695475D01*
X110080778Y-84641504D01*
X110081686Y-84521521D01*
X110086252Y-84446403D01*
X110097242Y-84404580D01*
X110117421Y-84384480D01*
X110144278Y-84375733D01*
X110187259Y-84366211D01*
X110277970Y-84346486D01*
X110408946Y-84318168D01*
X110572725Y-84282867D01*
X110761841Y-84242193D01*
X110968831Y-84197758D01*
X111033569Y-84183876D01*
X111239553Y-84138974D01*
X111425365Y-84097033D01*
X111584473Y-84059643D01*
X111710342Y-84028395D01*
X111796438Y-84004879D01*
X111836227Y-83990685D01*
X111837902Y-83988112D01*
X111805744Y-83978113D01*
X111725230Y-83958944D01*
X111603426Y-83932118D01*
X111447401Y-83899147D01*
X111264222Y-83861543D01*
X111060957Y-83820819D01*
X110998000Y-83808393D01*
X110788512Y-83767034D01*
X110595494Y-83728635D01*
X110426329Y-83694686D01*
X110288398Y-83666679D01*
X110189082Y-83646107D01*
X110135764Y-83634460D01*
X110130167Y-83633026D01*
X110106221Y-83618536D01*
X110091400Y-83584688D01*
X110083653Y-83520408D01*
X110080926Y-83414620D01*
X110080778Y-83366543D01*
X110083040Y-83238572D01*
X110090573Y-83159257D01*
X110104495Y-83120960D01*
X110117698Y-83114445D01*
X110152298Y-83121781D01*
G36*
X114201222Y-82098445D02*
X116205000Y-82098445D01*
X116205000Y-82606445D01*
X114201222Y-82606445D01*
X114201222Y-83340223D01*
X113777889Y-83340223D01*
X113777889Y-81392889D01*
X114201222Y-81392889D01*
X114201222Y-82098445D01*
X114201222Y-82098445D01*
G37*
X114201222Y-82098445D02*
X116205000Y-82098445D01*
X116205000Y-82606445D01*
X114201222Y-82606445D01*
X114201222Y-83340223D01*
X113777889Y-83340223D01*
X113777889Y-81392889D01*
X114201222Y-81392889D01*
X114201222Y-82098445D01*
G36*
X110504111Y-82804000D02*
X110080778Y-82804000D01*
X110080778Y-82324223D01*
X110504111Y-82324223D01*
X110504111Y-82804000D01*
X110504111Y-82804000D01*
G37*
X110504111Y-82804000D02*
X110080778Y-82804000D01*
X110080778Y-82324223D01*
X110504111Y-82324223D01*
X110504111Y-82804000D01*
G36*
X112507889Y-82804000D02*
X110701667Y-82804000D01*
X110701667Y-82324223D01*
X112507889Y-82324223D01*
X112507889Y-82804000D01*
X112507889Y-82804000D01*
G37*
X112507889Y-82804000D02*
X110701667Y-82804000D01*
X110701667Y-82324223D01*
X112507889Y-82324223D01*
X112507889Y-82804000D01*
G36*
X110504111Y-81336445D02*
X111040334Y-81336445D01*
X111040334Y-80264000D01*
X111463667Y-80264000D01*
X111463667Y-81336445D01*
X112507889Y-81336445D01*
X112507889Y-81816223D01*
X110080778Y-81816223D01*
X110080778Y-80122889D01*
X110504111Y-80122889D01*
X110504111Y-81336445D01*
X110504111Y-81336445D01*
G37*
X110504111Y-81336445D02*
X111040334Y-81336445D01*
X111040334Y-80264000D01*
X111463667Y-80264000D01*
X111463667Y-81336445D01*
X112507889Y-81336445D01*
X112507889Y-81816223D01*
X110080778Y-81816223D01*
X110080778Y-80122889D01*
X110504111Y-80122889D01*
X110504111Y-81336445D01*
G36*
X114201222Y-81054223D02*
X113777889Y-81054223D01*
X113777889Y-80574445D01*
X114201222Y-80574445D01*
X114201222Y-81054223D01*
X114201222Y-81054223D01*
G37*
X114201222Y-81054223D02*
X113777889Y-81054223D01*
X113777889Y-80574445D01*
X114201222Y-80574445D01*
X114201222Y-81054223D01*
G36*
X116205000Y-81054223D02*
X114398778Y-81054223D01*
X114398778Y-80574445D01*
X116205000Y-80574445D01*
X116205000Y-81054223D01*
X116205000Y-81054223D01*
G37*
X116205000Y-81054223D02*
X114398778Y-81054223D01*
X114398778Y-80574445D01*
X116205000Y-80574445D01*
X116205000Y-81054223D01*
G36*
X115070210Y-78800235D02*
X115062000Y-79031459D01*
X114964780Y-79064112D01*
X114852849Y-79128476D01*
X114782304Y-79228992D01*
X114757970Y-79357743D01*
X114782320Y-79492524D01*
X114854503Y-79598685D01*
X114973219Y-79675390D01*
X115137168Y-79721802D01*
X115345050Y-79737085D01*
X115347497Y-79737077D01*
X115542439Y-79721503D01*
X115693461Y-79675043D01*
X115805244Y-79595519D01*
X115877957Y-79490249D01*
X115910579Y-79413348D01*
X115916192Y-79353231D01*
X115896773Y-79278249D01*
X115892068Y-79264471D01*
X115853698Y-79183579D01*
X115794189Y-79124257D01*
X115718249Y-79078667D01*
X115584275Y-79008111D01*
X115584193Y-78788851D01*
X115584111Y-78569592D01*
X115661722Y-78587851D01*
X115872824Y-78661969D01*
X116042714Y-78774138D01*
X116169691Y-78922220D01*
X116252051Y-79104075D01*
X116288092Y-79317565D01*
X116289667Y-79376882D01*
X116264496Y-79593844D01*
X116191099Y-79786393D01*
X116072649Y-79949243D01*
X115912319Y-80077109D01*
X115848529Y-80111821D01*
X115763603Y-80149339D01*
X115682127Y-80173570D01*
X115586132Y-80188007D01*
X115457647Y-80196140D01*
X115404756Y-80198045D01*
X115231511Y-80198355D01*
X115085886Y-80188243D01*
X114989451Y-80170708D01*
X114781616Y-80087179D01*
X114614262Y-79966979D01*
X114489975Y-79812690D01*
X114411340Y-79626895D01*
X114400521Y-79582501D01*
X114373475Y-79349349D01*
X114395421Y-79139472D01*
X114464243Y-78956387D01*
X114577827Y-78803611D01*
X114734058Y-78684663D01*
X114930821Y-78603059D01*
X114999655Y-78585908D01*
X115078421Y-78569012D01*
X115070210Y-78800235D01*
X115070210Y-78800235D01*
G37*
X115070210Y-78800235D02*
X115062000Y-79031459D01*
X114964780Y-79064112D01*
X114852849Y-79128476D01*
X114782304Y-79228992D01*
X114757970Y-79357743D01*
X114782320Y-79492524D01*
X114854503Y-79598685D01*
X114973219Y-79675390D01*
X115137168Y-79721802D01*
X115345050Y-79737085D01*
X115347497Y-79737077D01*
X115542439Y-79721503D01*
X115693461Y-79675043D01*
X115805244Y-79595519D01*
X115877957Y-79490249D01*
X115910579Y-79413348D01*
X115916192Y-79353231D01*
X115896773Y-79278249D01*
X115892068Y-79264471D01*
X115853698Y-79183579D01*
X115794189Y-79124257D01*
X115718249Y-79078667D01*
X115584275Y-79008111D01*
X115584193Y-78788851D01*
X115584111Y-78569592D01*
X115661722Y-78587851D01*
X115872824Y-78661969D01*
X116042714Y-78774138D01*
X116169691Y-78922220D01*
X116252051Y-79104075D01*
X116288092Y-79317565D01*
X116289667Y-79376882D01*
X116264496Y-79593844D01*
X116191099Y-79786393D01*
X116072649Y-79949243D01*
X115912319Y-80077109D01*
X115848529Y-80111821D01*
X115763603Y-80149339D01*
X115682127Y-80173570D01*
X115586132Y-80188007D01*
X115457647Y-80196140D01*
X115404756Y-80198045D01*
X115231511Y-80198355D01*
X115085886Y-80188243D01*
X114989451Y-80170708D01*
X114781616Y-80087179D01*
X114614262Y-79966979D01*
X114489975Y-79812690D01*
X114411340Y-79626895D01*
X114400521Y-79582501D01*
X114373475Y-79349349D01*
X114395421Y-79139472D01*
X114464243Y-78956387D01*
X114577827Y-78803611D01*
X114734058Y-78684663D01*
X114930821Y-78603059D01*
X114999655Y-78585908D01*
X115078421Y-78569012D01*
X115070210Y-78800235D01*
G36*
X110504111Y-79727778D02*
X110080778Y-79727778D01*
X110080778Y-79248000D01*
X110504111Y-79248000D01*
X110504111Y-79727778D01*
X110504111Y-79727778D01*
G37*
X110504111Y-79727778D02*
X110080778Y-79727778D01*
X110080778Y-79248000D01*
X110504111Y-79248000D01*
X110504111Y-79727778D01*
G36*
X112507889Y-79727778D02*
X110701667Y-79727778D01*
X110701667Y-79248000D01*
X112507889Y-79248000D01*
X112507889Y-79727778D01*
X112507889Y-79727778D01*
G37*
X112507889Y-79727778D02*
X110701667Y-79727778D01*
X110701667Y-79248000D01*
X112507889Y-79248000D01*
X112507889Y-79727778D01*
G36*
X116196134Y-76677721D02*
X116201411Y-76748001D01*
X116204498Y-76850068D01*
X116205000Y-76916694D01*
X116205000Y-77181832D01*
X115831056Y-77384836D01*
X115699935Y-77456361D01*
X115587250Y-77518481D01*
X115501945Y-77566213D01*
X115452967Y-77594574D01*
X115444929Y-77599899D01*
X115455540Y-77625079D01*
X115496136Y-77675858D01*
X115528077Y-77710312D01*
X115623406Y-77808667D01*
X116205000Y-77808667D01*
X116205000Y-78260223D01*
X113777889Y-78260223D01*
X113777889Y-77809689D01*
X114444647Y-77802122D01*
X115111405Y-77794556D01*
X114804480Y-77536533D01*
X114663160Y-77417923D01*
X114558784Y-77328207D01*
X114485925Y-77258989D01*
X114439155Y-77201872D01*
X114413045Y-77148462D01*
X114402168Y-77090362D01*
X114401096Y-77019176D01*
X114404400Y-76926509D01*
X114404683Y-76918151D01*
X114412889Y-76669622D01*
X114745662Y-76973607D01*
X114891506Y-77103657D01*
X115000981Y-77193917D01*
X115076140Y-77245949D01*
X115119039Y-77261310D01*
X115123354Y-77260355D01*
X115160458Y-77241300D01*
X115238104Y-77198057D01*
X115348271Y-77135211D01*
X115482941Y-77057346D01*
X115634093Y-76969043D01*
X115671031Y-76947337D01*
X115822563Y-76858612D01*
X115957304Y-76780527D01*
X116067811Y-76717329D01*
X116146641Y-76673265D01*
X116186351Y-76652581D01*
X116189394Y-76651556D01*
X116196134Y-76677721D01*
X116196134Y-76677721D01*
G37*
X116196134Y-76677721D02*
X116201411Y-76748001D01*
X116204498Y-76850068D01*
X116205000Y-76916694D01*
X116205000Y-77181832D01*
X115831056Y-77384836D01*
X115699935Y-77456361D01*
X115587250Y-77518481D01*
X115501945Y-77566213D01*
X115452967Y-77594574D01*
X115444929Y-77599899D01*
X115455540Y-77625079D01*
X115496136Y-77675858D01*
X115528077Y-77710312D01*
X115623406Y-77808667D01*
X116205000Y-77808667D01*
X116205000Y-78260223D01*
X113777889Y-78260223D01*
X113777889Y-77809689D01*
X114444647Y-77802122D01*
X115111405Y-77794556D01*
X114804480Y-77536533D01*
X114663160Y-77417923D01*
X114558784Y-77328207D01*
X114485925Y-77258989D01*
X114439155Y-77201872D01*
X114413045Y-77148462D01*
X114402168Y-77090362D01*
X114401096Y-77019176D01*
X114404400Y-76926509D01*
X114404683Y-76918151D01*
X114412889Y-76669622D01*
X114745662Y-76973607D01*
X114891506Y-77103657D01*
X115000981Y-77193917D01*
X115076140Y-77245949D01*
X115119039Y-77261310D01*
X115123354Y-77260355D01*
X115160458Y-77241300D01*
X115238104Y-77198057D01*
X115348271Y-77135211D01*
X115482941Y-77057346D01*
X115634093Y-76969043D01*
X115671031Y-76947337D01*
X115822563Y-76858612D01*
X115957304Y-76780527D01*
X116067811Y-76717329D01*
X116146641Y-76673265D01*
X116186351Y-76652581D01*
X116189394Y-76651556D01*
X116196134Y-76677721D01*
G36*
X112947865Y-72163921D02*
X113053275Y-72205133D01*
X113054525Y-72205956D01*
X113118800Y-72236999D01*
X113205272Y-72254418D01*
X113329622Y-72261125D01*
X113353020Y-72261391D01*
X113469383Y-72264535D01*
X113548105Y-72275033D01*
X113607930Y-72297624D01*
X113667600Y-72337046D01*
X113675283Y-72342861D01*
X113759503Y-72420723D01*
X113836176Y-72512979D01*
X113849864Y-72533361D01*
X113901749Y-72599749D01*
X113951874Y-72639230D01*
X113969247Y-72644000D01*
X114044419Y-72665846D01*
X114129793Y-72721407D01*
X114206998Y-72795722D01*
X114257663Y-72873828D01*
X114260559Y-72881261D01*
X114313022Y-72975284D01*
X114383262Y-73015756D01*
X114471642Y-73002793D01*
X114534449Y-72968806D01*
X114618320Y-72925217D01*
X114731316Y-72881468D01*
X114833921Y-72851060D01*
X114951939Y-72825677D01*
X115047648Y-72817468D01*
X115150587Y-72825422D01*
X115228317Y-72837568D01*
X115452600Y-72898052D01*
X115695037Y-73003961D01*
X115946995Y-73151038D01*
X116136848Y-73285670D01*
X116390845Y-73479837D01*
X116516645Y-73412480D01*
X116630597Y-73369729D01*
X116747207Y-73355941D01*
X116850030Y-73370711D01*
X116922622Y-73413636D01*
X116930006Y-73422641D01*
X116962825Y-73510668D01*
X116957926Y-73618144D01*
X116919604Y-73717416D01*
X116850906Y-73793272D01*
X116747319Y-73863607D01*
X116630080Y-73916911D01*
X116520425Y-73941677D01*
X116504766Y-73942223D01*
X116451033Y-73937084D01*
X116400120Y-73916581D01*
X116340326Y-73873087D01*
X116259951Y-73798972D01*
X116211113Y-73750768D01*
X115997614Y-73560816D01*
X115759381Y-73388276D01*
X115517634Y-73248097D01*
X115454527Y-73217742D01*
X115270756Y-73154387D01*
X115082359Y-73126302D01*
X114904797Y-73134319D01*
X114753537Y-73179267D01*
X114752001Y-73180007D01*
X114672424Y-73224238D01*
X114638856Y-73260273D01*
X114640053Y-73289412D01*
X114655556Y-73346205D01*
X114670321Y-73429582D01*
X114673276Y-73451831D01*
X114687539Y-73568217D01*
X114883819Y-73582261D01*
X115081579Y-73620810D01*
X115295459Y-73706754D01*
X115518924Y-73835794D01*
X115745435Y-74003628D01*
X115968454Y-74205956D01*
X116176778Y-74432903D01*
X116260331Y-74527686D01*
X116320057Y-74582481D01*
X116364095Y-74603820D01*
X116388445Y-74602769D01*
X116575107Y-74568622D01*
X116728414Y-74573739D01*
X116845115Y-74617819D01*
X116883051Y-74648496D01*
X116932970Y-74730230D01*
X116934615Y-74818142D01*
X116894548Y-74905027D01*
X116819329Y-74983678D01*
X116715519Y-75046889D01*
X116589680Y-75087454D01*
X116473111Y-75098760D01*
X116345918Y-75074006D01*
X116244052Y-74999543D01*
X116188887Y-74921382D01*
X116129219Y-74833136D01*
X116037261Y-74718837D01*
X115923224Y-74589578D01*
X115797321Y-74456450D01*
X115669761Y-74330544D01*
X115550757Y-74222952D01*
X115529348Y-74204992D01*
X115323599Y-74052253D01*
X115136986Y-73950424D01*
X114966928Y-73898317D01*
X114847831Y-73891201D01*
X114758013Y-73899707D01*
X114714423Y-73914457D01*
X114706902Y-73939150D01*
X114707717Y-73942223D01*
X114716548Y-73992716D01*
X114725887Y-74077706D01*
X114731304Y-74145123D01*
X114739471Y-74236429D01*
X114753685Y-74286704D01*
X114782511Y-74311303D01*
X114831587Y-74324956D01*
X114955524Y-74366156D01*
X115095536Y-74435218D01*
X115227694Y-74520180D01*
X115238684Y-74528425D01*
X115351151Y-74635531D01*
X115471698Y-74788557D01*
X115594923Y-74978613D01*
X115715425Y-75196808D01*
X115827806Y-75434250D01*
X115906880Y-75628500D01*
X115984157Y-75833111D01*
X116130632Y-75833111D01*
X116275629Y-75851234D01*
X116384768Y-75900058D01*
X116455116Y-75971270D01*
X116483742Y-76056556D01*
X116467713Y-76147600D01*
X116404098Y-76236089D01*
X116298578Y-76309362D01*
X116200797Y-76336089D01*
X116076877Y-76338104D01*
X115950771Y-76316719D01*
X115868690Y-76285869D01*
X115782358Y-76230867D01*
X115738797Y-76166503D01*
X115725407Y-76072454D01*
X115725222Y-76054454D01*
X115712927Y-75979350D01*
X115679282Y-75866390D01*
X115629149Y-75727703D01*
X115567391Y-75575423D01*
X115498870Y-75421682D01*
X115428448Y-75278611D01*
X115376367Y-75184000D01*
X115271340Y-75027481D01*
X115150111Y-74883468D01*
X115024097Y-74763651D01*
X114904717Y-74679718D01*
X114864754Y-74660200D01*
X114776048Y-74635502D01*
X114667009Y-74621083D01*
X114624617Y-74619556D01*
X114481755Y-74619556D01*
X114541989Y-74701026D01*
X114585265Y-74797865D01*
X114573369Y-74897937D01*
X114505949Y-75002644D01*
X114453243Y-75055431D01*
X114386640Y-75111895D01*
X114335825Y-75148294D01*
X114318652Y-75155778D01*
X114290076Y-75176228D01*
X114239073Y-75229500D01*
X114184678Y-75294247D01*
X114062291Y-75425549D01*
X113940162Y-75508345D01*
X113808261Y-75549553D01*
X113736766Y-75570940D01*
X113699987Y-75616316D01*
X113687846Y-75654050D01*
X113651985Y-75728233D01*
X113590085Y-75806512D01*
X113566762Y-75828852D01*
X113435610Y-75911888D01*
X113294540Y-75939358D01*
X113143464Y-75911280D01*
X113137397Y-75909070D01*
X113065389Y-75884823D01*
X113012344Y-75879742D01*
X112955220Y-75896168D01*
X112871670Y-75936100D01*
X112784338Y-75975261D01*
X112705776Y-75995460D01*
X112612289Y-76000869D01*
X112520892Y-75997869D01*
X112361198Y-75976632D01*
X112250788Y-75930691D01*
X112187553Y-75858669D01*
X112169222Y-75768728D01*
X112163468Y-75712388D01*
X112140127Y-75700533D01*
X112119834Y-75707393D01*
X111983810Y-75743157D01*
X111857643Y-75734339D01*
X111751047Y-75686043D01*
X111673740Y-75603375D01*
X111635436Y-75491439D01*
X111633000Y-75451611D01*
X111626087Y-75399660D01*
X111595357Y-75390623D01*
X111569500Y-75397219D01*
X111498392Y-75427521D01*
X111443423Y-75476624D01*
X111390511Y-75558959D01*
X111366198Y-75605561D01*
X111295196Y-75784415D01*
X111253313Y-75985331D01*
X111239975Y-76215724D01*
X111254609Y-76483009D01*
X111281675Y-76699306D01*
X111306265Y-76855283D01*
X111328729Y-76967929D01*
X111353141Y-77050016D01*
X111383571Y-77114316D01*
X111424092Y-77173602D01*
X111438870Y-77192377D01*
X111480767Y-77274589D01*
X111473877Y-77362247D01*
X111416981Y-77462924D01*
X111389758Y-77497061D01*
X111278253Y-77596224D01*
X111147425Y-77660274D01*
X111012512Y-77684042D01*
X110895009Y-77664823D01*
X110815506Y-77610137D01*
X110777655Y-77529402D01*
X110780160Y-77433200D01*
X110821727Y-77332110D01*
X110901062Y-77236713D01*
X110952380Y-77195911D01*
X111022607Y-77137125D01*
X111053915Y-77088188D01*
X111053922Y-77074889D01*
X111023698Y-76938398D01*
X110996693Y-76763846D01*
X110974975Y-76569607D01*
X110960613Y-76374052D01*
X110955667Y-76202233D01*
X110964753Y-75949669D01*
X110993448Y-75739151D01*
X111043904Y-75559048D01*
X111097292Y-75436992D01*
X111131357Y-75363019D01*
X111138712Y-75312677D01*
X111121185Y-75260897D01*
X111111538Y-75241699D01*
X111071079Y-75116068D01*
X111086014Y-74999478D01*
X111153426Y-74891747D01*
X111202754Y-74822927D01*
X111205452Y-74784346D01*
X111163432Y-74777434D01*
X111078603Y-74803623D01*
X111051393Y-74815303D01*
X110936304Y-74894769D01*
X110825060Y-75025896D01*
X110719938Y-75203925D01*
X110623213Y-75424096D01*
X110537165Y-75681647D01*
X110464068Y-75971817D01*
X110439004Y-76095746D01*
X110419795Y-76208157D01*
X110414004Y-76280335D01*
X110421563Y-76326855D01*
X110437776Y-76356222D01*
X110472267Y-76446952D01*
X110463938Y-76549618D01*
X110431691Y-76617432D01*
X110344587Y-76698244D01*
X110222313Y-76756662D01*
X110083222Y-76788208D01*
X109945671Y-76788405D01*
X109844125Y-76760784D01*
X109770247Y-76699744D01*
X109730702Y-76611258D01*
X109734644Y-76517006D01*
X109737598Y-76508578D01*
X109788741Y-76423094D01*
X109876583Y-76350238D01*
X109998492Y-76286948D01*
X110125811Y-76230629D01*
X110161907Y-76010703D01*
X110195825Y-75846559D01*
X110245641Y-75660183D01*
X110306445Y-75465869D01*
X110373331Y-75277913D01*
X110441389Y-75110608D01*
X110505712Y-74978248D01*
X110531092Y-74935494D01*
X110606121Y-74830586D01*
X110691581Y-74727074D01*
X110749034Y-74666919D01*
X110863002Y-74559060D01*
X110822463Y-74441394D01*
X110799333Y-74348820D01*
X110791884Y-74263905D01*
X110793352Y-74245864D01*
X110794442Y-74189598D01*
X110765270Y-74169733D01*
X110733912Y-74168000D01*
X110607035Y-74194340D01*
X110471610Y-74269634D01*
X110333626Y-74388296D01*
X110199069Y-74544741D01*
X110073926Y-74733381D01*
X110017630Y-74836319D01*
X109918363Y-75041539D01*
X109851990Y-75205816D01*
X109817249Y-75333144D01*
X109812878Y-75427516D01*
X109820393Y-75460037D01*
X109830909Y-75559416D01*
X109795639Y-75645316D01*
X109724274Y-75714679D01*
X109626501Y-75764448D01*
X109512008Y-75791567D01*
X109390486Y-75792978D01*
X109271622Y-75765625D01*
X109165106Y-75706450D01*
X109132089Y-75677211D01*
X109078302Y-75591707D01*
X109073967Y-75501763D01*
X109113698Y-75416296D01*
X109192106Y-75344226D01*
X109303804Y-75294471D01*
X109371688Y-75280583D01*
X109443612Y-75269121D01*
X109488728Y-75249851D01*
X109520670Y-75209676D01*
X109553069Y-75135503D01*
X109570721Y-75089412D01*
X109711549Y-74765743D01*
X109869443Y-74488864D01*
X110042822Y-74260461D01*
X110230109Y-74082221D01*
X110429723Y-73955830D01*
X110544648Y-73916028D01*
X111351398Y-73916028D01*
X111375850Y-74124389D01*
X111446467Y-74308155D01*
X111556547Y-74462512D01*
X111699389Y-74582647D01*
X111868294Y-74663747D01*
X112056560Y-74700996D01*
X112257487Y-74689581D01*
X112382678Y-74656914D01*
X112480215Y-74608892D01*
X112586931Y-74533397D01*
X112689174Y-74442916D01*
X112773296Y-74349942D01*
X112825646Y-74266964D01*
X112833505Y-74244378D01*
X112851346Y-74173293D01*
X112978070Y-74229349D01*
X113176768Y-74288855D01*
X113374646Y-74295932D01*
X113563507Y-74254018D01*
X113735155Y-74166550D01*
X113881394Y-74036966D01*
X113994028Y-73868705D01*
X114028866Y-73788601D01*
X114074601Y-73635389D01*
X114084635Y-73499812D01*
X114059638Y-73356338D01*
X114041750Y-73296467D01*
X113956342Y-73117288D01*
X113831634Y-72971351D01*
X113676346Y-72862235D01*
X113499198Y-72793515D01*
X113308909Y-72768769D01*
X113114199Y-72791573D01*
X112953577Y-72850106D01*
X112806008Y-72944993D01*
X112683540Y-73067176D01*
X112600893Y-73201599D01*
X112594516Y-73217399D01*
X112566562Y-73290923D01*
X112431392Y-73230386D01*
X112244162Y-73174648D01*
X112056155Y-73169126D01*
X111875222Y-73208837D01*
X111709215Y-73288797D01*
X111565981Y-73404023D01*
X111453373Y-73549531D01*
X111379239Y-73720337D01*
X111351430Y-73911457D01*
X111351398Y-73916028D01*
X110544648Y-73916028D01*
X110640087Y-73882975D01*
X110711418Y-73870991D01*
X110861096Y-73852290D01*
X110848851Y-73704626D01*
X110859371Y-73546159D01*
X110914123Y-73405306D01*
X111007305Y-73294511D01*
X111055960Y-73260256D01*
X111124044Y-73206129D01*
X111152994Y-73152238D01*
X111153222Y-73147811D01*
X111179199Y-73037982D01*
X111248792Y-72934965D01*
X111349500Y-72851614D01*
X111468819Y-72800782D01*
X111496134Y-72795270D01*
X111569526Y-72776848D01*
X111600633Y-72746628D01*
X111604883Y-72718004D01*
X111627249Y-72630482D01*
X111685118Y-72534562D01*
X111765057Y-72449969D01*
X111809131Y-72418070D01*
X111934196Y-72371587D01*
X112071810Y-72367749D01*
X112199036Y-72406674D01*
X112215411Y-72415967D01*
X112303933Y-72469945D01*
X112370633Y-72368594D01*
X112440802Y-72289123D01*
X112530200Y-72220473D01*
X112550222Y-72209217D01*
X112675393Y-72166099D01*
X112814923Y-72150955D01*
X112947865Y-72163921D01*
X112947865Y-72163921D01*
G37*
X112947865Y-72163921D02*
X113053275Y-72205133D01*
X113054525Y-72205956D01*
X113118800Y-72236999D01*
X113205272Y-72254418D01*
X113329622Y-72261125D01*
X113353020Y-72261391D01*
X113469383Y-72264535D01*
X113548105Y-72275033D01*
X113607930Y-72297624D01*
X113667600Y-72337046D01*
X113675283Y-72342861D01*
X113759503Y-72420723D01*
X113836176Y-72512979D01*
X113849864Y-72533361D01*
X113901749Y-72599749D01*
X113951874Y-72639230D01*
X113969247Y-72644000D01*
X114044419Y-72665846D01*
X114129793Y-72721407D01*
X114206998Y-72795722D01*
X114257663Y-72873828D01*
X114260559Y-72881261D01*
X114313022Y-72975284D01*
X114383262Y-73015756D01*
X114471642Y-73002793D01*
X114534449Y-72968806D01*
X114618320Y-72925217D01*
X114731316Y-72881468D01*
X114833921Y-72851060D01*
X114951939Y-72825677D01*
X115047648Y-72817468D01*
X115150587Y-72825422D01*
X115228317Y-72837568D01*
X115452600Y-72898052D01*
X115695037Y-73003961D01*
X115946995Y-73151038D01*
X116136848Y-73285670D01*
X116390845Y-73479837D01*
X116516645Y-73412480D01*
X116630597Y-73369729D01*
X116747207Y-73355941D01*
X116850030Y-73370711D01*
X116922622Y-73413636D01*
X116930006Y-73422641D01*
X116962825Y-73510668D01*
X116957926Y-73618144D01*
X116919604Y-73717416D01*
X116850906Y-73793272D01*
X116747319Y-73863607D01*
X116630080Y-73916911D01*
X116520425Y-73941677D01*
X116504766Y-73942223D01*
X116451033Y-73937084D01*
X116400120Y-73916581D01*
X116340326Y-73873087D01*
X116259951Y-73798972D01*
X116211113Y-73750768D01*
X115997614Y-73560816D01*
X115759381Y-73388276D01*
X115517634Y-73248097D01*
X115454527Y-73217742D01*
X115270756Y-73154387D01*
X115082359Y-73126302D01*
X114904797Y-73134319D01*
X114753537Y-73179267D01*
X114752001Y-73180007D01*
X114672424Y-73224238D01*
X114638856Y-73260273D01*
X114640053Y-73289412D01*
X114655556Y-73346205D01*
X114670321Y-73429582D01*
X114673276Y-73451831D01*
X114687539Y-73568217D01*
X114883819Y-73582261D01*
X115081579Y-73620810D01*
X115295459Y-73706754D01*
X115518924Y-73835794D01*
X115745435Y-74003628D01*
X115968454Y-74205956D01*
X116176778Y-74432903D01*
X116260331Y-74527686D01*
X116320057Y-74582481D01*
X116364095Y-74603820D01*
X116388445Y-74602769D01*
X116575107Y-74568622D01*
X116728414Y-74573739D01*
X116845115Y-74617819D01*
X116883051Y-74648496D01*
X116932970Y-74730230D01*
X116934615Y-74818142D01*
X116894548Y-74905027D01*
X116819329Y-74983678D01*
X116715519Y-75046889D01*
X116589680Y-75087454D01*
X116473111Y-75098760D01*
X116345918Y-75074006D01*
X116244052Y-74999543D01*
X116188887Y-74921382D01*
X116129219Y-74833136D01*
X116037261Y-74718837D01*
X115923224Y-74589578D01*
X115797321Y-74456450D01*
X115669761Y-74330544D01*
X115550757Y-74222952D01*
X115529348Y-74204992D01*
X115323599Y-74052253D01*
X115136986Y-73950424D01*
X114966928Y-73898317D01*
X114847831Y-73891201D01*
X114758013Y-73899707D01*
X114714423Y-73914457D01*
X114706902Y-73939150D01*
X114707717Y-73942223D01*
X114716548Y-73992716D01*
X114725887Y-74077706D01*
X114731304Y-74145123D01*
X114739471Y-74236429D01*
X114753685Y-74286704D01*
X114782511Y-74311303D01*
X114831587Y-74324956D01*
X114955524Y-74366156D01*
X115095536Y-74435218D01*
X115227694Y-74520180D01*
X115238684Y-74528425D01*
X115351151Y-74635531D01*
X115471698Y-74788557D01*
X115594923Y-74978613D01*
X115715425Y-75196808D01*
X115827806Y-75434250D01*
X115906880Y-75628500D01*
X115984157Y-75833111D01*
X116130632Y-75833111D01*
X116275629Y-75851234D01*
X116384768Y-75900058D01*
X116455116Y-75971270D01*
X116483742Y-76056556D01*
X116467713Y-76147600D01*
X116404098Y-76236089D01*
X116298578Y-76309362D01*
X116200797Y-76336089D01*
X116076877Y-76338104D01*
X115950771Y-76316719D01*
X115868690Y-76285869D01*
X115782358Y-76230867D01*
X115738797Y-76166503D01*
X115725407Y-76072454D01*
X115725222Y-76054454D01*
X115712927Y-75979350D01*
X115679282Y-75866390D01*
X115629149Y-75727703D01*
X115567391Y-75575423D01*
X115498870Y-75421682D01*
X115428448Y-75278611D01*
X115376367Y-75184000D01*
X115271340Y-75027481D01*
X115150111Y-74883468D01*
X115024097Y-74763651D01*
X114904717Y-74679718D01*
X114864754Y-74660200D01*
X114776048Y-74635502D01*
X114667009Y-74621083D01*
X114624617Y-74619556D01*
X114481755Y-74619556D01*
X114541989Y-74701026D01*
X114585265Y-74797865D01*
X114573369Y-74897937D01*
X114505949Y-75002644D01*
X114453243Y-75055431D01*
X114386640Y-75111895D01*
X114335825Y-75148294D01*
X114318652Y-75155778D01*
X114290076Y-75176228D01*
X114239073Y-75229500D01*
X114184678Y-75294247D01*
X114062291Y-75425549D01*
X113940162Y-75508345D01*
X113808261Y-75549553D01*
X113736766Y-75570940D01*
X113699987Y-75616316D01*
X113687846Y-75654050D01*
X113651985Y-75728233D01*
X113590085Y-75806512D01*
X113566762Y-75828852D01*
X113435610Y-75911888D01*
X113294540Y-75939358D01*
X113143464Y-75911280D01*
X113137397Y-75909070D01*
X113065389Y-75884823D01*
X113012344Y-75879742D01*
X112955220Y-75896168D01*
X112871670Y-75936100D01*
X112784338Y-75975261D01*
X112705776Y-75995460D01*
X112612289Y-76000869D01*
X112520892Y-75997869D01*
X112361198Y-75976632D01*
X112250788Y-75930691D01*
X112187553Y-75858669D01*
X112169222Y-75768728D01*
X112163468Y-75712388D01*
X112140127Y-75700533D01*
X112119834Y-75707393D01*
X111983810Y-75743157D01*
X111857643Y-75734339D01*
X111751047Y-75686043D01*
X111673740Y-75603375D01*
X111635436Y-75491439D01*
X111633000Y-75451611D01*
X111626087Y-75399660D01*
X111595357Y-75390623D01*
X111569500Y-75397219D01*
X111498392Y-75427521D01*
X111443423Y-75476624D01*
X111390511Y-75558959D01*
X111366198Y-75605561D01*
X111295196Y-75784415D01*
X111253313Y-75985331D01*
X111239975Y-76215724D01*
X111254609Y-76483009D01*
X111281675Y-76699306D01*
X111306265Y-76855283D01*
X111328729Y-76967929D01*
X111353141Y-77050016D01*
X111383571Y-77114316D01*
X111424092Y-77173602D01*
X111438870Y-77192377D01*
X111480767Y-77274589D01*
X111473877Y-77362247D01*
X111416981Y-77462924D01*
X111389758Y-77497061D01*
X111278253Y-77596224D01*
X111147425Y-77660274D01*
X111012512Y-77684042D01*
X110895009Y-77664823D01*
X110815506Y-77610137D01*
X110777655Y-77529402D01*
X110780160Y-77433200D01*
X110821727Y-77332110D01*
X110901062Y-77236713D01*
X110952380Y-77195911D01*
X111022607Y-77137125D01*
X111053915Y-77088188D01*
X111053922Y-77074889D01*
X111023698Y-76938398D01*
X110996693Y-76763846D01*
X110974975Y-76569607D01*
X110960613Y-76374052D01*
X110955667Y-76202233D01*
X110964753Y-75949669D01*
X110993448Y-75739151D01*
X111043904Y-75559048D01*
X111097292Y-75436992D01*
X111131357Y-75363019D01*
X111138712Y-75312677D01*
X111121185Y-75260897D01*
X111111538Y-75241699D01*
X111071079Y-75116068D01*
X111086014Y-74999478D01*
X111153426Y-74891747D01*
X111202754Y-74822927D01*
X111205452Y-74784346D01*
X111163432Y-74777434D01*
X111078603Y-74803623D01*
X111051393Y-74815303D01*
X110936304Y-74894769D01*
X110825060Y-75025896D01*
X110719938Y-75203925D01*
X110623213Y-75424096D01*
X110537165Y-75681647D01*
X110464068Y-75971817D01*
X110439004Y-76095746D01*
X110419795Y-76208157D01*
X110414004Y-76280335D01*
X110421563Y-76326855D01*
X110437776Y-76356222D01*
X110472267Y-76446952D01*
X110463938Y-76549618D01*
X110431691Y-76617432D01*
X110344587Y-76698244D01*
X110222313Y-76756662D01*
X110083222Y-76788208D01*
X109945671Y-76788405D01*
X109844125Y-76760784D01*
X109770247Y-76699744D01*
X109730702Y-76611258D01*
X109734644Y-76517006D01*
X109737598Y-76508578D01*
X109788741Y-76423094D01*
X109876583Y-76350238D01*
X109998492Y-76286948D01*
X110125811Y-76230629D01*
X110161907Y-76010703D01*
X110195825Y-75846559D01*
X110245641Y-75660183D01*
X110306445Y-75465869D01*
X110373331Y-75277913D01*
X110441389Y-75110608D01*
X110505712Y-74978248D01*
X110531092Y-74935494D01*
X110606121Y-74830586D01*
X110691581Y-74727074D01*
X110749034Y-74666919D01*
X110863002Y-74559060D01*
X110822463Y-74441394D01*
X110799333Y-74348820D01*
X110791884Y-74263905D01*
X110793352Y-74245864D01*
X110794442Y-74189598D01*
X110765270Y-74169733D01*
X110733912Y-74168000D01*
X110607035Y-74194340D01*
X110471610Y-74269634D01*
X110333626Y-74388296D01*
X110199069Y-74544741D01*
X110073926Y-74733381D01*
X110017630Y-74836319D01*
X109918363Y-75041539D01*
X109851990Y-75205816D01*
X109817249Y-75333144D01*
X109812878Y-75427516D01*
X109820393Y-75460037D01*
X109830909Y-75559416D01*
X109795639Y-75645316D01*
X109724274Y-75714679D01*
X109626501Y-75764448D01*
X109512008Y-75791567D01*
X109390486Y-75792978D01*
X109271622Y-75765625D01*
X109165106Y-75706450D01*
X109132089Y-75677211D01*
X109078302Y-75591707D01*
X109073967Y-75501763D01*
X109113698Y-75416296D01*
X109192106Y-75344226D01*
X109303804Y-75294471D01*
X109371688Y-75280583D01*
X109443612Y-75269121D01*
X109488728Y-75249851D01*
X109520670Y-75209676D01*
X109553069Y-75135503D01*
X109570721Y-75089412D01*
X109711549Y-74765743D01*
X109869443Y-74488864D01*
X110042822Y-74260461D01*
X110230109Y-74082221D01*
X110429723Y-73955830D01*
X110544648Y-73916028D01*
X111351398Y-73916028D01*
X111375850Y-74124389D01*
X111446467Y-74308155D01*
X111556547Y-74462512D01*
X111699389Y-74582647D01*
X111868294Y-74663747D01*
X112056560Y-74700996D01*
X112257487Y-74689581D01*
X112382678Y-74656914D01*
X112480215Y-74608892D01*
X112586931Y-74533397D01*
X112689174Y-74442916D01*
X112773296Y-74349942D01*
X112825646Y-74266964D01*
X112833505Y-74244378D01*
X112851346Y-74173293D01*
X112978070Y-74229349D01*
X113176768Y-74288855D01*
X113374646Y-74295932D01*
X113563507Y-74254018D01*
X113735155Y-74166550D01*
X113881394Y-74036966D01*
X113994028Y-73868705D01*
X114028866Y-73788601D01*
X114074601Y-73635389D01*
X114084635Y-73499812D01*
X114059638Y-73356338D01*
X114041750Y-73296467D01*
X113956342Y-73117288D01*
X113831634Y-72971351D01*
X113676346Y-72862235D01*
X113499198Y-72793515D01*
X113308909Y-72768769D01*
X113114199Y-72791573D01*
X112953577Y-72850106D01*
X112806008Y-72944993D01*
X112683540Y-73067176D01*
X112600893Y-73201599D01*
X112594516Y-73217399D01*
X112566562Y-73290923D01*
X112431392Y-73230386D01*
X112244162Y-73174648D01*
X112056155Y-73169126D01*
X111875222Y-73208837D01*
X111709215Y-73288797D01*
X111565981Y-73404023D01*
X111453373Y-73549531D01*
X111379239Y-73720337D01*
X111351430Y-73911457D01*
X111351398Y-73916028D01*
X110544648Y-73916028D01*
X110640087Y-73882975D01*
X110711418Y-73870991D01*
X110861096Y-73852290D01*
X110848851Y-73704626D01*
X110859371Y-73546159D01*
X110914123Y-73405306D01*
X111007305Y-73294511D01*
X111055960Y-73260256D01*
X111124044Y-73206129D01*
X111152994Y-73152238D01*
X111153222Y-73147811D01*
X111179199Y-73037982D01*
X111248792Y-72934965D01*
X111349500Y-72851614D01*
X111468819Y-72800782D01*
X111496134Y-72795270D01*
X111569526Y-72776848D01*
X111600633Y-72746628D01*
X111604883Y-72718004D01*
X111627249Y-72630482D01*
X111685118Y-72534562D01*
X111765057Y-72449969D01*
X111809131Y-72418070D01*
X111934196Y-72371587D01*
X112071810Y-72367749D01*
X112199036Y-72406674D01*
X112215411Y-72415967D01*
X112303933Y-72469945D01*
X112370633Y-72368594D01*
X112440802Y-72289123D01*
X112530200Y-72220473D01*
X112550222Y-72209217D01*
X112675393Y-72166099D01*
X112814923Y-72150955D01*
X112947865Y-72163921D01*
G36*
X112463476Y-73473512D02*
X112547473Y-73521246D01*
X112613328Y-73607951D01*
X112656336Y-73717774D01*
X112671788Y-73834866D01*
X112654980Y-73943373D01*
X112621505Y-74005723D01*
X112546350Y-74068799D01*
X112463654Y-74076318D01*
X112372408Y-74028270D01*
X112343725Y-74003496D01*
X112275052Y-73913126D01*
X112238491Y-73809188D01*
X112231557Y-73702673D01*
X112251767Y-73604573D01*
X112296638Y-73525880D01*
X112363685Y-73477585D01*
X112450425Y-73470682D01*
X112463476Y-73473512D01*
X112463476Y-73473512D01*
G37*
X112463476Y-73473512D02*
X112547473Y-73521246D01*
X112613328Y-73607951D01*
X112656336Y-73717774D01*
X112671788Y-73834866D01*
X112654980Y-73943373D01*
X112621505Y-74005723D01*
X112546350Y-74068799D01*
X112463654Y-74076318D01*
X112372408Y-74028270D01*
X112343725Y-74003496D01*
X112275052Y-73913126D01*
X112238491Y-73809188D01*
X112231557Y-73702673D01*
X112251767Y-73604573D01*
X112296638Y-73525880D01*
X112363685Y-73477585D01*
X112450425Y-73470682D01*
X112463476Y-73473512D01*
G36*
X112944979Y-73327066D02*
X113029540Y-73370244D01*
X113100042Y-73454042D01*
X113104437Y-73462004D01*
X113148787Y-73580924D01*
X113157084Y-73692043D01*
X113135145Y-73787873D01*
X113088784Y-73860928D01*
X113023818Y-73903720D01*
X112946061Y-73908759D01*
X112861331Y-73868559D01*
X112818775Y-73829806D01*
X112743165Y-73709884D01*
X112715476Y-73571764D01*
X112734251Y-73446563D01*
X112784604Y-73364694D01*
X112859091Y-73325039D01*
X112944979Y-73327066D01*
X112944979Y-73327066D01*
G37*
X112944979Y-73327066D02*
X113029540Y-73370244D01*
X113100042Y-73454042D01*
X113104437Y-73462004D01*
X113148787Y-73580924D01*
X113157084Y-73692043D01*
X113135145Y-73787873D01*
X113088784Y-73860928D01*
X113023818Y-73903720D01*
X112946061Y-73908759D01*
X112861331Y-73868559D01*
X112818775Y-73829806D01*
X112743165Y-73709884D01*
X112715476Y-73571764D01*
X112734251Y-73446563D01*
X112784604Y-73364694D01*
X112859091Y-73325039D01*
X112944979Y-73327066D01*
D13*
X118884500Y-70769000D02*
X115684500Y-70769000D01*
X115684500Y-70769000D02*
X115684500Y-68169000D01*
X115684500Y-68169000D02*
X118884500Y-68169000D01*
X118884500Y-68169000D02*
X118884500Y-70769000D01*
X118272000Y-75915000D02*
X118272000Y-75215000D01*
X119472000Y-75215000D02*
X119472000Y-75915000D01*
X140175500Y-75409500D02*
X140875500Y-75409500D01*
X140875500Y-76609500D02*
X140175500Y-76609500D01*
X142846500Y-78963000D02*
X142846500Y-78263000D01*
X144046500Y-78263000D02*
X144046500Y-78963000D01*
X143963500Y-71612000D02*
X143963500Y-69612000D01*
X141913500Y-69612000D02*
X141913500Y-71612000D01*
X120869000Y-68992000D02*
X120869000Y-69692000D01*
X119669000Y-69692000D02*
X119669000Y-68992000D01*
X113700000Y-69692000D02*
X113700000Y-68992000D01*
X114900000Y-68992000D02*
X114900000Y-69692000D01*
X135476500Y-67789500D02*
X136176500Y-67789500D01*
X136176500Y-68989500D02*
X135476500Y-68989500D01*
X143415500Y-75022000D02*
X142715500Y-75022000D01*
X142715500Y-73822000D02*
X143415500Y-73822000D01*
X116565500Y-85767000D02*
X118465500Y-85767000D01*
X116565500Y-84667000D02*
X118465500Y-84667000D01*
X117465500Y-85217000D02*
X117915500Y-85217000D01*
X117415500Y-84967000D02*
X117415500Y-85467000D01*
X117415500Y-85217000D02*
X117665500Y-84967000D01*
X117665500Y-84967000D02*
X117665500Y-85467000D01*
X117665500Y-85467000D02*
X117415500Y-85217000D01*
X128246500Y-78557500D02*
X128246500Y-79557500D01*
X126896500Y-79557500D02*
X126896500Y-78557500D01*
X136819000Y-78557500D02*
X136819000Y-79557500D01*
X135469000Y-79557500D02*
X135469000Y-78557500D01*
X121388500Y-78557500D02*
X121388500Y-79557500D01*
X120038500Y-79557500D02*
X120038500Y-78557500D01*
X123103000Y-78557500D02*
X123103000Y-79557500D01*
X121753000Y-79557500D02*
X121753000Y-78557500D01*
X119483500Y-78557500D02*
X119483500Y-79557500D01*
X118133500Y-79557500D02*
X118133500Y-78557500D01*
X132040000Y-79557500D02*
X132040000Y-78557500D01*
X133390000Y-78557500D02*
X133390000Y-79557500D01*
X133754500Y-79557500D02*
X133754500Y-78557500D01*
X135104500Y-78557500D02*
X135104500Y-79557500D01*
X125182000Y-79557500D02*
X125182000Y-78557500D01*
X126532000Y-78557500D02*
X126532000Y-79557500D01*
X123467500Y-79557500D02*
X123467500Y-78557500D01*
X124817500Y-78557500D02*
X124817500Y-79557500D01*
X122722000Y-72969500D02*
X122722000Y-73969500D01*
X121372000Y-73969500D02*
X121372000Y-72969500D01*
X139247500Y-69064500D02*
X138247500Y-69064500D01*
X138247500Y-67714500D02*
X139247500Y-67714500D01*
X135644000Y-76160000D02*
X136644000Y-76160000D01*
X136644000Y-77510000D02*
X135644000Y-77510000D01*
X129961000Y-78557500D02*
X129961000Y-79557500D01*
X128611000Y-79557500D02*
X128611000Y-78557500D01*
X131675500Y-78557500D02*
X131675500Y-79557500D01*
X130325500Y-79557500D02*
X130325500Y-78557500D01*
D14*
X141973300Y-77101700D02*
X138823700Y-77101700D01*
X138823700Y-80251300D02*
X141973300Y-80251300D01*
D13*
X129942500Y-70336500D02*
X129942500Y-70861500D01*
X124692500Y-75586500D02*
X124692500Y-75061500D01*
X129942500Y-75586500D02*
X129942500Y-75061500D01*
X124692500Y-70336500D02*
X125217500Y-70336500D01*
X124692500Y-75586500D02*
X125217500Y-75586500D01*
X129942500Y-75586500D02*
X129417500Y-75586500D01*
X129942500Y-70336500D02*
X129417500Y-70336500D01*
X139465500Y-74954500D02*
X139465500Y-74749500D01*
X133965500Y-74954500D02*
X133965500Y-74654500D01*
X133965500Y-69444500D02*
X133965500Y-69744500D01*
X139465500Y-69444500D02*
X139465500Y-69744500D01*
X139465500Y-74954500D02*
X133965500Y-74954500D01*
X139465500Y-69444500D02*
X133965500Y-69444500D01*
X139465500Y-74749500D02*
X141215500Y-74749500D01*
D11*
X116873261Y-71222810D02*
X117211928Y-71730810D01*
X117211928Y-71222810D02*
X116873261Y-71730810D01*
X117671548Y-71730810D02*
X117381262Y-71730810D01*
X117526405Y-71730810D02*
X117526405Y-71222810D01*
X117478024Y-71295381D01*
X117429643Y-71343762D01*
X117381262Y-71367952D01*
X118787333Y-77524429D02*
X118763143Y-77548619D01*
X118690571Y-77572810D01*
X118642190Y-77572810D01*
X118569619Y-77548619D01*
X118521238Y-77500238D01*
X118497047Y-77451857D01*
X118472857Y-77355095D01*
X118472857Y-77282524D01*
X118497047Y-77185762D01*
X118521238Y-77137381D01*
X118569619Y-77089000D01*
X118642190Y-77064810D01*
X118690571Y-77064810D01*
X118763143Y-77089000D01*
X118787333Y-77113190D01*
X118956666Y-77064810D02*
X119295333Y-77064810D01*
X119077619Y-77572810D01*
X138535833Y-76190929D02*
X138511643Y-76215119D01*
X138439071Y-76239310D01*
X138390690Y-76239310D01*
X138318119Y-76215119D01*
X138269738Y-76166738D01*
X138245547Y-76118357D01*
X138221357Y-76021595D01*
X138221357Y-75949024D01*
X138245547Y-75852262D01*
X138269738Y-75803881D01*
X138318119Y-75755500D01*
X138390690Y-75731310D01*
X138439071Y-75731310D01*
X138511643Y-75755500D01*
X138535833Y-75779690D01*
X139019643Y-76239310D02*
X138729357Y-76239310D01*
X138874500Y-76239310D02*
X138874500Y-75731310D01*
X138826119Y-75803881D01*
X138777738Y-75852262D01*
X138729357Y-75876452D01*
X143298333Y-80635929D02*
X143274143Y-80660119D01*
X143201571Y-80684310D01*
X143153190Y-80684310D01*
X143080619Y-80660119D01*
X143032238Y-80611738D01*
X143008047Y-80563357D01*
X142983857Y-80466595D01*
X142983857Y-80394024D01*
X143008047Y-80297262D01*
X143032238Y-80248881D01*
X143080619Y-80200500D01*
X143153190Y-80176310D01*
X143201571Y-80176310D01*
X143274143Y-80200500D01*
X143298333Y-80224690D01*
X143491857Y-80224690D02*
X143516047Y-80200500D01*
X143564428Y-80176310D01*
X143685381Y-80176310D01*
X143733762Y-80200500D01*
X143757952Y-80224690D01*
X143782143Y-80273071D01*
X143782143Y-80321452D01*
X143757952Y-80394024D01*
X143467666Y-80684310D01*
X143782143Y-80684310D01*
X142790333Y-73460429D02*
X142766143Y-73484619D01*
X142693571Y-73508810D01*
X142645190Y-73508810D01*
X142572619Y-73484619D01*
X142524238Y-73436238D01*
X142500047Y-73387857D01*
X142475857Y-73291095D01*
X142475857Y-73218524D01*
X142500047Y-73121762D01*
X142524238Y-73073381D01*
X142572619Y-73025000D01*
X142645190Y-73000810D01*
X142693571Y-73000810D01*
X142766143Y-73025000D01*
X142790333Y-73049190D01*
X142959666Y-73000810D02*
X143274143Y-73000810D01*
X143104809Y-73194333D01*
X143177381Y-73194333D01*
X143225762Y-73218524D01*
X143249952Y-73242714D01*
X143274143Y-73291095D01*
X143274143Y-73412048D01*
X143249952Y-73460429D01*
X143225762Y-73484619D01*
X143177381Y-73508810D01*
X143032238Y-73508810D01*
X142983857Y-73484619D01*
X142959666Y-73460429D01*
X120120833Y-71364929D02*
X120096643Y-71389119D01*
X120024071Y-71413310D01*
X119975690Y-71413310D01*
X119903119Y-71389119D01*
X119854738Y-71340738D01*
X119830547Y-71292357D01*
X119806357Y-71195595D01*
X119806357Y-71123024D01*
X119830547Y-71026262D01*
X119854738Y-70977881D01*
X119903119Y-70929500D01*
X119975690Y-70905310D01*
X120024071Y-70905310D01*
X120096643Y-70929500D01*
X120120833Y-70953690D01*
X120556262Y-71074643D02*
X120556262Y-71413310D01*
X120435309Y-70881119D02*
X120314357Y-71243976D01*
X120628833Y-71243976D01*
X114151833Y-71364929D02*
X114127643Y-71389119D01*
X114055071Y-71413310D01*
X114006690Y-71413310D01*
X113934119Y-71389119D01*
X113885738Y-71340738D01*
X113861547Y-71292357D01*
X113837357Y-71195595D01*
X113837357Y-71123024D01*
X113861547Y-71026262D01*
X113885738Y-70977881D01*
X113934119Y-70929500D01*
X114006690Y-70905310D01*
X114055071Y-70905310D01*
X114127643Y-70929500D01*
X114151833Y-70953690D01*
X114611452Y-70905310D02*
X114369547Y-70905310D01*
X114345357Y-71147214D01*
X114369547Y-71123024D01*
X114417928Y-71098833D01*
X114538881Y-71098833D01*
X114587262Y-71123024D01*
X114611452Y-71147214D01*
X114635643Y-71195595D01*
X114635643Y-71316548D01*
X114611452Y-71364929D01*
X114587262Y-71389119D01*
X114538881Y-71413310D01*
X114417928Y-71413310D01*
X114369547Y-71389119D01*
X114345357Y-71364929D01*
X133709833Y-68951929D02*
X133685643Y-68976119D01*
X133613071Y-69000310D01*
X133564690Y-69000310D01*
X133492119Y-68976119D01*
X133443738Y-68927738D01*
X133419547Y-68879357D01*
X133395357Y-68782595D01*
X133395357Y-68710024D01*
X133419547Y-68613262D01*
X133443738Y-68564881D01*
X133492119Y-68516500D01*
X133564690Y-68492310D01*
X133613071Y-68492310D01*
X133685643Y-68516500D01*
X133709833Y-68540690D01*
X134145262Y-68492310D02*
X134048500Y-68492310D01*
X134000119Y-68516500D01*
X133975928Y-68540690D01*
X133927547Y-68613262D01*
X133903357Y-68710024D01*
X133903357Y-68903548D01*
X133927547Y-68951929D01*
X133951738Y-68976119D01*
X134000119Y-69000310D01*
X134096881Y-69000310D01*
X134145262Y-68976119D01*
X134169452Y-68951929D01*
X134193643Y-68903548D01*
X134193643Y-68782595D01*
X134169452Y-68734214D01*
X134145262Y-68710024D01*
X134096881Y-68685833D01*
X134000119Y-68685833D01*
X133951738Y-68710024D01*
X133927547Y-68734214D01*
X133903357Y-68782595D01*
X142980833Y-75682929D02*
X142956643Y-75707119D01*
X142884071Y-75731310D01*
X142835690Y-75731310D01*
X142763119Y-75707119D01*
X142714738Y-75658738D01*
X142690547Y-75610357D01*
X142666357Y-75513595D01*
X142666357Y-75441024D01*
X142690547Y-75344262D01*
X142714738Y-75295881D01*
X142763119Y-75247500D01*
X142835690Y-75223310D01*
X142884071Y-75223310D01*
X142956643Y-75247500D01*
X142980833Y-75271690D01*
X143271119Y-75441024D02*
X143222738Y-75416833D01*
X143198547Y-75392643D01*
X143174357Y-75344262D01*
X143174357Y-75320071D01*
X143198547Y-75271690D01*
X143222738Y-75247500D01*
X143271119Y-75223310D01*
X143367881Y-75223310D01*
X143416262Y-75247500D01*
X143440452Y-75271690D01*
X143464643Y-75320071D01*
X143464643Y-75344262D01*
X143440452Y-75392643D01*
X143416262Y-75416833D01*
X143367881Y-75441024D01*
X143271119Y-75441024D01*
X143222738Y-75465214D01*
X143198547Y-75489405D01*
X143174357Y-75537786D01*
X143174357Y-75634548D01*
X143198547Y-75682929D01*
X143222738Y-75707119D01*
X143271119Y-75731310D01*
X143367881Y-75731310D01*
X143416262Y-75707119D01*
X143440452Y-75682929D01*
X143464643Y-75634548D01*
X143464643Y-75537786D01*
X143440452Y-75489405D01*
X143416262Y-75465214D01*
X143367881Y-75441024D01*
X117290547Y-86526310D02*
X117290547Y-86018310D01*
X117411500Y-86018310D01*
X117484071Y-86042500D01*
X117532452Y-86090881D01*
X117556643Y-86139262D01*
X117580833Y-86236024D01*
X117580833Y-86308595D01*
X117556643Y-86405357D01*
X117532452Y-86453738D01*
X117484071Y-86502119D01*
X117411500Y-86526310D01*
X117290547Y-86526310D01*
X118064643Y-86526310D02*
X117774357Y-86526310D01*
X117919500Y-86526310D02*
X117919500Y-86018310D01*
X117871119Y-86090881D01*
X117822738Y-86139262D01*
X117774357Y-86163452D01*
X127613833Y-80938310D02*
X127444500Y-80696405D01*
X127323547Y-80938310D02*
X127323547Y-80430310D01*
X127517071Y-80430310D01*
X127565452Y-80454500D01*
X127589643Y-80478690D01*
X127613833Y-80527071D01*
X127613833Y-80599643D01*
X127589643Y-80648024D01*
X127565452Y-80672214D01*
X127517071Y-80696405D01*
X127323547Y-80696405D01*
X128097643Y-80938310D02*
X127807357Y-80938310D01*
X127952500Y-80938310D02*
X127952500Y-80430310D01*
X127904119Y-80502881D01*
X127855738Y-80551262D01*
X127807357Y-80575452D01*
X136059333Y-80938310D02*
X135890000Y-80696405D01*
X135769047Y-80938310D02*
X135769047Y-80430310D01*
X135962571Y-80430310D01*
X136010952Y-80454500D01*
X136035143Y-80478690D01*
X136059333Y-80527071D01*
X136059333Y-80599643D01*
X136035143Y-80648024D01*
X136010952Y-80672214D01*
X135962571Y-80696405D01*
X135769047Y-80696405D01*
X136252857Y-80478690D02*
X136277047Y-80454500D01*
X136325428Y-80430310D01*
X136446381Y-80430310D01*
X136494762Y-80454500D01*
X136518952Y-80478690D01*
X136543143Y-80527071D01*
X136543143Y-80575452D01*
X136518952Y-80648024D01*
X136228666Y-80938310D01*
X136543143Y-80938310D01*
X120882833Y-80938310D02*
X120713500Y-80696405D01*
X120592547Y-80938310D02*
X120592547Y-80430310D01*
X120786071Y-80430310D01*
X120834452Y-80454500D01*
X120858643Y-80478690D01*
X120882833Y-80527071D01*
X120882833Y-80599643D01*
X120858643Y-80648024D01*
X120834452Y-80672214D01*
X120786071Y-80696405D01*
X120592547Y-80696405D01*
X121052166Y-80430310D02*
X121366643Y-80430310D01*
X121197309Y-80623833D01*
X121269881Y-80623833D01*
X121318262Y-80648024D01*
X121342452Y-80672214D01*
X121366643Y-80720595D01*
X121366643Y-80841548D01*
X121342452Y-80889929D01*
X121318262Y-80914119D01*
X121269881Y-80938310D01*
X121124738Y-80938310D01*
X121076357Y-80914119D01*
X121052166Y-80889929D01*
X122343333Y-80938310D02*
X122174000Y-80696405D01*
X122053047Y-80938310D02*
X122053047Y-80430310D01*
X122246571Y-80430310D01*
X122294952Y-80454500D01*
X122319143Y-80478690D01*
X122343333Y-80527071D01*
X122343333Y-80599643D01*
X122319143Y-80648024D01*
X122294952Y-80672214D01*
X122246571Y-80696405D01*
X122053047Y-80696405D01*
X122778762Y-80599643D02*
X122778762Y-80938310D01*
X122657809Y-80406119D02*
X122536857Y-80768976D01*
X122851333Y-80768976D01*
X118723833Y-80938310D02*
X118554500Y-80696405D01*
X118433547Y-80938310D02*
X118433547Y-80430310D01*
X118627071Y-80430310D01*
X118675452Y-80454500D01*
X118699643Y-80478690D01*
X118723833Y-80527071D01*
X118723833Y-80599643D01*
X118699643Y-80648024D01*
X118675452Y-80672214D01*
X118627071Y-80696405D01*
X118433547Y-80696405D01*
X119183452Y-80430310D02*
X118941547Y-80430310D01*
X118917357Y-80672214D01*
X118941547Y-80648024D01*
X118989928Y-80623833D01*
X119110881Y-80623833D01*
X119159262Y-80648024D01*
X119183452Y-80672214D01*
X119207643Y-80720595D01*
X119207643Y-80841548D01*
X119183452Y-80889929D01*
X119159262Y-80914119D01*
X119110881Y-80938310D01*
X118989928Y-80938310D01*
X118941547Y-80914119D01*
X118917357Y-80889929D01*
X132630333Y-80938310D02*
X132461000Y-80696405D01*
X132340047Y-80938310D02*
X132340047Y-80430310D01*
X132533571Y-80430310D01*
X132581952Y-80454500D01*
X132606143Y-80478690D01*
X132630333Y-80527071D01*
X132630333Y-80599643D01*
X132606143Y-80648024D01*
X132581952Y-80672214D01*
X132533571Y-80696405D01*
X132340047Y-80696405D01*
X133065762Y-80430310D02*
X132969000Y-80430310D01*
X132920619Y-80454500D01*
X132896428Y-80478690D01*
X132848047Y-80551262D01*
X132823857Y-80648024D01*
X132823857Y-80841548D01*
X132848047Y-80889929D01*
X132872238Y-80914119D01*
X132920619Y-80938310D01*
X133017381Y-80938310D01*
X133065762Y-80914119D01*
X133089952Y-80889929D01*
X133114143Y-80841548D01*
X133114143Y-80720595D01*
X133089952Y-80672214D01*
X133065762Y-80648024D01*
X133017381Y-80623833D01*
X132920619Y-80623833D01*
X132872238Y-80648024D01*
X132848047Y-80672214D01*
X132823857Y-80720595D01*
X134344833Y-80938310D02*
X134175500Y-80696405D01*
X134054547Y-80938310D02*
X134054547Y-80430310D01*
X134248071Y-80430310D01*
X134296452Y-80454500D01*
X134320643Y-80478690D01*
X134344833Y-80527071D01*
X134344833Y-80599643D01*
X134320643Y-80648024D01*
X134296452Y-80672214D01*
X134248071Y-80696405D01*
X134054547Y-80696405D01*
X134514166Y-80430310D02*
X134852833Y-80430310D01*
X134635119Y-80938310D01*
X125772333Y-80938310D02*
X125603000Y-80696405D01*
X125482047Y-80938310D02*
X125482047Y-80430310D01*
X125675571Y-80430310D01*
X125723952Y-80454500D01*
X125748143Y-80478690D01*
X125772333Y-80527071D01*
X125772333Y-80599643D01*
X125748143Y-80648024D01*
X125723952Y-80672214D01*
X125675571Y-80696405D01*
X125482047Y-80696405D01*
X126062619Y-80648024D02*
X126014238Y-80623833D01*
X125990047Y-80599643D01*
X125965857Y-80551262D01*
X125965857Y-80527071D01*
X125990047Y-80478690D01*
X126014238Y-80454500D01*
X126062619Y-80430310D01*
X126159381Y-80430310D01*
X126207762Y-80454500D01*
X126231952Y-80478690D01*
X126256143Y-80527071D01*
X126256143Y-80551262D01*
X126231952Y-80599643D01*
X126207762Y-80623833D01*
X126159381Y-80648024D01*
X126062619Y-80648024D01*
X126014238Y-80672214D01*
X125990047Y-80696405D01*
X125965857Y-80744786D01*
X125965857Y-80841548D01*
X125990047Y-80889929D01*
X126014238Y-80914119D01*
X126062619Y-80938310D01*
X126159381Y-80938310D01*
X126207762Y-80914119D01*
X126231952Y-80889929D01*
X126256143Y-80841548D01*
X126256143Y-80744786D01*
X126231952Y-80696405D01*
X126207762Y-80672214D01*
X126159381Y-80648024D01*
X124057833Y-80938310D02*
X123888500Y-80696405D01*
X123767547Y-80938310D02*
X123767547Y-80430310D01*
X123961071Y-80430310D01*
X124009452Y-80454500D01*
X124033643Y-80478690D01*
X124057833Y-80527071D01*
X124057833Y-80599643D01*
X124033643Y-80648024D01*
X124009452Y-80672214D01*
X123961071Y-80696405D01*
X123767547Y-80696405D01*
X124299738Y-80938310D02*
X124396500Y-80938310D01*
X124444881Y-80914119D01*
X124469071Y-80889929D01*
X124517452Y-80817357D01*
X124541643Y-80720595D01*
X124541643Y-80527071D01*
X124517452Y-80478690D01*
X124493262Y-80454500D01*
X124444881Y-80430310D01*
X124348119Y-80430310D01*
X124299738Y-80454500D01*
X124275547Y-80478690D01*
X124251357Y-80527071D01*
X124251357Y-80648024D01*
X124275547Y-80696405D01*
X124299738Y-80720595D01*
X124348119Y-80744786D01*
X124444881Y-80744786D01*
X124493262Y-80720595D01*
X124517452Y-80696405D01*
X124541643Y-80648024D01*
X121720428Y-75350310D02*
X121551095Y-75108405D01*
X121430142Y-75350310D02*
X121430142Y-74842310D01*
X121623666Y-74842310D01*
X121672047Y-74866500D01*
X121696238Y-74890690D01*
X121720428Y-74939071D01*
X121720428Y-75011643D01*
X121696238Y-75060024D01*
X121672047Y-75084214D01*
X121623666Y-75108405D01*
X121430142Y-75108405D01*
X122204238Y-75350310D02*
X121913952Y-75350310D01*
X122059095Y-75350310D02*
X122059095Y-74842310D01*
X122010714Y-74914881D01*
X121962333Y-74963262D01*
X121913952Y-74987452D01*
X122518714Y-74842310D02*
X122567095Y-74842310D01*
X122615476Y-74866500D01*
X122639667Y-74890690D01*
X122663857Y-74939071D01*
X122688048Y-75035833D01*
X122688048Y-75156786D01*
X122663857Y-75253548D01*
X122639667Y-75301929D01*
X122615476Y-75326119D01*
X122567095Y-75350310D01*
X122518714Y-75350310D01*
X122470333Y-75326119D01*
X122446143Y-75301929D01*
X122421952Y-75253548D01*
X122397762Y-75156786D01*
X122397762Y-75035833D01*
X122421952Y-74939071D01*
X122446143Y-74890690D01*
X122470333Y-74866500D01*
X122518714Y-74842310D01*
X140452928Y-69000310D02*
X140283595Y-68758405D01*
X140162642Y-69000310D02*
X140162642Y-68492310D01*
X140356166Y-68492310D01*
X140404547Y-68516500D01*
X140428738Y-68540690D01*
X140452928Y-68589071D01*
X140452928Y-68661643D01*
X140428738Y-68710024D01*
X140404547Y-68734214D01*
X140356166Y-68758405D01*
X140162642Y-68758405D01*
X140936738Y-69000310D02*
X140646452Y-69000310D01*
X140791595Y-69000310D02*
X140791595Y-68492310D01*
X140743214Y-68564881D01*
X140694833Y-68613262D01*
X140646452Y-68637452D01*
X141420548Y-69000310D02*
X141130262Y-69000310D01*
X141275405Y-69000310D02*
X141275405Y-68492310D01*
X141227024Y-68564881D01*
X141178643Y-68613262D01*
X141130262Y-68637452D01*
X133721928Y-77128310D02*
X133552595Y-76886405D01*
X133431642Y-77128310D02*
X133431642Y-76620310D01*
X133625166Y-76620310D01*
X133673547Y-76644500D01*
X133697738Y-76668690D01*
X133721928Y-76717071D01*
X133721928Y-76789643D01*
X133697738Y-76838024D01*
X133673547Y-76862214D01*
X133625166Y-76886405D01*
X133431642Y-76886405D01*
X134205738Y-77128310D02*
X133915452Y-77128310D01*
X134060595Y-77128310D02*
X134060595Y-76620310D01*
X134012214Y-76692881D01*
X133963833Y-76741262D01*
X133915452Y-76765452D01*
X134399262Y-76668690D02*
X134423452Y-76644500D01*
X134471833Y-76620310D01*
X134592786Y-76620310D01*
X134641167Y-76644500D01*
X134665357Y-76668690D01*
X134689548Y-76717071D01*
X134689548Y-76765452D01*
X134665357Y-76838024D01*
X134375071Y-77128310D01*
X134689548Y-77128310D01*
X128959428Y-80938310D02*
X128790095Y-80696405D01*
X128669142Y-80938310D02*
X128669142Y-80430310D01*
X128862666Y-80430310D01*
X128911047Y-80454500D01*
X128935238Y-80478690D01*
X128959428Y-80527071D01*
X128959428Y-80599643D01*
X128935238Y-80648024D01*
X128911047Y-80672214D01*
X128862666Y-80696405D01*
X128669142Y-80696405D01*
X129443238Y-80938310D02*
X129152952Y-80938310D01*
X129298095Y-80938310D02*
X129298095Y-80430310D01*
X129249714Y-80502881D01*
X129201333Y-80551262D01*
X129152952Y-80575452D01*
X129612571Y-80430310D02*
X129927048Y-80430310D01*
X129757714Y-80623833D01*
X129830286Y-80623833D01*
X129878667Y-80648024D01*
X129902857Y-80672214D01*
X129927048Y-80720595D01*
X129927048Y-80841548D01*
X129902857Y-80889929D01*
X129878667Y-80914119D01*
X129830286Y-80938310D01*
X129685143Y-80938310D01*
X129636762Y-80914119D01*
X129612571Y-80889929D01*
X130737428Y-80938310D02*
X130568095Y-80696405D01*
X130447142Y-80938310D02*
X130447142Y-80430310D01*
X130640666Y-80430310D01*
X130689047Y-80454500D01*
X130713238Y-80478690D01*
X130737428Y-80527071D01*
X130737428Y-80599643D01*
X130713238Y-80648024D01*
X130689047Y-80672214D01*
X130640666Y-80696405D01*
X130447142Y-80696405D01*
X131221238Y-80938310D02*
X130930952Y-80938310D01*
X131076095Y-80938310D02*
X131076095Y-80430310D01*
X131027714Y-80502881D01*
X130979333Y-80551262D01*
X130930952Y-80575452D01*
X131656667Y-80599643D02*
X131656667Y-80938310D01*
X131535714Y-80406119D02*
X131414762Y-80768976D01*
X131729238Y-80768976D01*
X141281452Y-80430310D02*
X141281452Y-80841548D01*
X141305643Y-80889929D01*
X141329833Y-80914119D01*
X141378214Y-80938310D01*
X141474976Y-80938310D01*
X141523357Y-80914119D01*
X141547548Y-80889929D01*
X141571738Y-80841548D01*
X141571738Y-80430310D01*
X142079738Y-80938310D02*
X141789452Y-80938310D01*
X141934595Y-80938310D02*
X141934595Y-80430310D01*
X141886214Y-80502881D01*
X141837833Y-80551262D01*
X141789452Y-80575452D01*
X124390452Y-69381310D02*
X124390452Y-69792548D01*
X124414643Y-69840929D01*
X124438833Y-69865119D01*
X124487214Y-69889310D01*
X124583976Y-69889310D01*
X124632357Y-69865119D01*
X124656548Y-69840929D01*
X124680738Y-69792548D01*
X124680738Y-69381310D01*
X124898452Y-69429690D02*
X124922642Y-69405500D01*
X124971023Y-69381310D01*
X125091976Y-69381310D01*
X125140357Y-69405500D01*
X125164547Y-69429690D01*
X125188738Y-69478071D01*
X125188738Y-69526452D01*
X125164547Y-69599024D01*
X124874261Y-69889310D01*
X125188738Y-69889310D01*
X134042452Y-75159810D02*
X134042452Y-75571048D01*
X134066643Y-75619429D01*
X134090833Y-75643619D01*
X134139214Y-75667810D01*
X134235976Y-75667810D01*
X134284357Y-75643619D01*
X134308548Y-75619429D01*
X134332738Y-75571048D01*
X134332738Y-75159810D01*
X134526261Y-75159810D02*
X134840738Y-75159810D01*
X134671404Y-75353333D01*
X134743976Y-75353333D01*
X134792357Y-75377524D01*
X134816547Y-75401714D01*
X134840738Y-75450095D01*
X134840738Y-75571048D01*
X134816547Y-75619429D01*
X134792357Y-75643619D01*
X134743976Y-75667810D01*
X134598833Y-75667810D01*
X134550452Y-75643619D01*
X134526261Y-75619429D01*
M02*
